<?xml version="1.0" encoding="iso-8859-1"?>
<!-- Generator: Adobe Illustrator 18.0.0, SVG Export Plug-In . SVG Version: 6.00 Build 0)  -->
<!DOCTYPE svg PUBLIC "-//W3C//DTD SVG 1.1//EN" "http://www.w3.org/Graphics/SVG/1.1/DTD/svg11.dtd">
<svg version="1.1" id="Capa_1" xmlns="http://www.w3.org/2000/svg" xmlns:xlink="http://www.w3.org/1999/xlink" x="0px" y="0px"
	 viewBox="0 0 348.139 348.139" style="enable-background:new 0 0 348.139 348.139;" xml:space="preserve">
<path d="M336.638,139.664c-7.417-7.417-17.277-11.502-27.766-11.502c-10.481,0-20.337,4.08-27.752,11.488l-75.014,74.943
	l-38.491-38.667l77.317-76.965c13.456-13.395,13.505-35.239,0.111-48.694c-2.771-2.785-5.939-5.028-9.431-6.71
	c-1.658-3.484-3.912-6.7-6.714-9.515C222.386,27.501,213.719,23.9,204.49,23.9c-9.168,0-17.796,3.563-24.294,10.031l-20.823,20.728
	c-3.801-6.872-8.531-13.182-14.146-18.818c-16.022-16.095-37.353-24.986-60.061-25.037c-0.065,0-0.13,0-0.195,0
	c-22.635,0-43.929,8.792-59.977,24.769c-33.219,33.069-33.34,87-0.271,120.219c6.611,6.645,14.129,12.041,22.388,16.14
	c-15.013,29.5-10.266,66.567,14.326,91.271l52.933,53.175c13.454,13.515,31.366,20.958,50.437,20.958
	c18.948,0,36.778-7.361,50.212-20.735l121.594-121.381c7.428-7.414,11.521-17.277,11.526-27.772
	C348.144,156.951,344.059,147.084,336.638,139.664z M238.785,61.416c6.366,8.781,5.603,21.153-2.32,29.042l-77.316,76.965
	l-7.68-7.715l77.317-76.966C234.59,76.965,238.074,69.48,238.785,61.416z M33.229,147.326C4.827,118.796,4.93,72.479,33.46,44.076
	c13.785-13.723,32.07-21.272,51.512-21.272c0.055,0,0.113,0,0.167,0c19.503,0.044,37.823,7.681,51.585,21.505
	c5.644,5.666,10.25,12.119,13.745,19.213l-88.778,88.374c-3.081,3.067-5.84,6.335-8.306,9.752
	C45.928,158.08,39.159,153.288,33.229,147.326z M328.136,186.727L206.547,308.102c-11.165,11.113-25.988,17.233-41.741,17.233
	c-15.855,0-30.747-6.188-41.932-17.425l-52.933-53.175c-25.949-26.067-25.853-68.386,0.215-94.336L188.662,42.435
	c4.234-4.214,9.855-6.535,15.829-6.535c6.013,0,11.66,2.347,15.902,6.608c4.228,4.247,6.549,9.887,6.535,15.88
	s-2.36,11.622-6.608,15.851l-98.784,98.334c-2.349,2.337-2.357,6.137-0.02,8.485c1.172,1.178,2.712,1.767,4.252,1.767
	c1.531,0,3.062-0.582,4.233-1.748l12.962-12.902l54.645,54.894l-12.962,12.903c-2.349,2.337-2.357,6.137-0.02,8.484
	c1.172,1.179,2.712,1.768,4.252,1.768c1.531,0,3.062-0.582,4.233-1.748l96.489-96.335c5.149-5.145,11.993-7.978,19.271-7.978
	c7.284,0,14.131,2.837,19.281,7.987c5.153,5.152,7.989,12.004,7.986,19.291C336.136,174.729,333.294,181.577,328.136,186.727z"/>
<g>
</g>
<g>
</g>
<g>
</g>
<g>
</g>
<g>
</g>
<g>
</g>
<g>
</g>
<g>
</g>
<g>
</g>
<g>
</g>
<g>
</g>
<g>
</g>
<g>
</g>
<g>
</g>
<g>
</g>
</svg>
