<?xml version="1.0" encoding="iso-8859-1"?>
<!-- Generator: Adobe Illustrator 18.0.0, SVG Export Plug-In . SVG Version: 6.00 Build 0)  -->
<!DOCTYPE svg PUBLIC "-//W3C//DTD SVG 1.1//EN" "http://www.w3.org/Graphics/SVG/1.1/DTD/svg11.dtd">
<svg version="1.1" id="Capa_1" xmlns="http://www.w3.org/2000/svg" xmlns:xlink="http://www.w3.org/1999/xlink" x="0px" y="0px"
	 viewBox="0 0 432.854 432.854" style="enable-background:new 0 0 432.854 432.854;" xml:space="preserve">
<path d="M411.855,164.373h-3.194c-0.602,0-1.193,0.041-1.782,0.09c-7.764-16.86-22.23-25.398-43.086-25.398
	c-31.613,0-70.782,40.279-89.087,61.32v-6.364c0-3.314-2.686-6-6-6H164.148c-3.314,0-6,2.686-6,6v6.354
	c-18.305-21.038-57.475-61.31-89.087-61.31c-19.199,0-32.981,7.245-41.089,21.517c-1.228-0.224-2.487-0.359-3.779-0.359h-3.194
	c-11.579,0-20.999,9.42-20.999,21v66.26c0,11.579,9.42,20.999,20.999,20.999h3.194c0.602,0,1.193-0.041,1.782-0.09
	c7.763,16.86,22.23,25.398,43.086,25.398c31.612,0,70.782-40.278,89.087-61.32v6.362c0,3.313,2.686,6,6,6h104.557
	c3.314,0,6-2.687,6-6v-6.353c18.305,21.038,57.475,61.311,89.087,61.311c19.199,0,32.981-7.246,41.089-21.517
	c1.228,0.224,2.487,0.359,3.779,0.359h3.194c11.579,0,20.999-9.42,20.999-20.999v-66.26
	C432.854,173.793,423.434,164.373,411.855,164.373z M12,247.482v-66.26c0-4.962,4.037-9,8.999-9h3.194c4.962,0,8.999,4.037,8.999,9
	v66.26c0,4.962-4.037,8.999-8.999,8.999h-3.194C16.037,256.481,12,252.444,12,247.482z M69.062,281.789
	c-16.031,0-26.065-5.555-31.901-17.823c4.882-3.848,8.032-9.8,8.032-16.484v-66.26c0-5.979-2.524-11.369-6.548-15.197
	c5.994-10.302,15.583-14.96,30.417-14.96c28.137,0,69.768,44.165,86.946,65.357C138.83,237.617,97.198,281.789,69.062,281.789z
	 M262.705,232.832h-92.557v-32.81h92.557V232.832z M363.792,281.789c-28.137,0-69.768-44.165-86.946-65.357
	c17.178-21.195,58.809-65.367,86.946-65.367c16.03,0,26.064,5.555,31.901,17.823c-4.882,3.849-8.032,9.8-8.032,16.484v66.26
	c0,5.979,2.524,11.369,6.548,15.197C388.215,277.131,378.627,281.789,363.792,281.789z M420.854,251.632
	c0,4.962-4.037,8.999-8.999,8.999h-3.194c-4.962,0-8.999-4.037-8.999-8.999v-66.26c0-4.962,4.037-8.999,8.999-8.999h3.194
	c4.962,0,8.999,4.037,8.999,8.999V251.632z"/>
<g>
</g>
<g>
</g>
<g>
</g>
<g>
</g>
<g>
</g>
<g>
</g>
<g>
</g>
<g>
</g>
<g>
</g>
<g>
</g>
<g>
</g>
<g>
</g>
<g>
</g>
<g>
</g>
<g>
</g>
</svg>
