<?xml version="1.0" encoding="iso-8859-1"?>
<!-- Generator: Adobe Illustrator 18.0.0, SVG Export Plug-In . SVG Version: 6.00 Build 0)  -->
<!DOCTYPE svg PUBLIC "-//W3C//DTD SVG 1.1//EN" "http://www.w3.org/Graphics/SVG/1.1/DTD/svg11.dtd">
<svg version="1.1" id="Capa_1" xmlns="http://www.w3.org/2000/svg" xmlns:xlink="http://www.w3.org/1999/xlink" x="0px" y="0px"
	 viewBox="0 0 416 416" style="enable-background:new 0 0 416 416;" xml:space="preserve">
<g>
	<path d="M416,174.375c-0.013-49.914-41.19-90.521-91.792-90.521h-7.328c-9.266,0-18.148-3.942-24.376-10.816l-0.188-0.216
		c-8.489-9.409-20.631-14.805-33.311-14.805h-102.01c-12.681,0-24.822,5.396-33.364,14.866l-0.108,0.124
		c-6.229,6.894-15.123,10.847-24.403,10.847h-8.562c-24.186,0-46.926,9.42-64.031,26.526C9.42,127.485,0,150.226,0,174.412v81.035
		c0,49.934,40.624,90.558,90.558,90.558h31.582v5.979c0,3.313,2.687,6,6,6h43.453c3.313,0,6-2.687,6-6v-5.979h147.849
		c24.187,0,46.927-9.42,64.032-26.526C406.579,302.374,416,279.634,416,255.447v-81.035c0-0.003,0-0.006,0-0.009
		C416,174.394,416,174.384,416,174.375z M305.349,299.488c0,19.033-15.484,34.517-34.518,34.517h-15.727V264.97h15.727
		C289.864,264.97,305.349,280.454,305.349,299.488z M177.593,252.97v-5.509c0-3.314-2.687-6-6-6H128.14c-3.313,0-6,2.686-6,6v5.509
		H90.558c-27.341,0-52.681-14.269-66.944-37.453c3.221-5.236,7.04-10.086,11.397-14.443c14.84-14.839,34.566-23.011,55.547-23.011
		h7.547c9.83,0,19.061,4.344,25.326,11.918c8.553,10.338,21.153,16.268,34.572,16.268h99.993c13.419,0,26.02-5.93,34.572-16.268
		c6.267-7.574,15.497-11.918,25.326-11.918h7.547c27.342,0,52.683,14.27,66.944,37.454c-3.22,5.234-7.038,10.084-11.396,14.442
		c-14.84,14.839-34.566,23.011-55.548,23.011H177.593z M35.011,118.865c14.84-14.839,34.566-23.011,55.547-23.011h8.562
		c12.667,0,24.808-5.395,33.364-14.866l0.111-0.127c6.217-6.892,15.11-10.844,24.4-10.844h102.01c9.289,0,18.183,3.953,24.335,10.77
		l0.164,0.188c0.022,0.026,0.046,0.052,0.068,0.077c8.5,9.407,20.64,14.802,33.308,14.802h7.328
		c43.986,0,79.781,35.226,79.792,78.553c-0.008,9.893-1.879,19.676-5.456,28.781c-16.933-23.135-44.035-37.126-73.103-37.126h-7.547
		c-13.417,0-26.019,5.93-34.572,16.269c-6.266,7.573-15.496,11.917-25.326,11.917h-99.993c-9.83,0-19.061-4.344-25.326-11.917
		c-8.553-10.339-21.154-16.269-34.572-16.269h-7.547c-24.186,0-46.926,9.42-64.031,26.526c-3.3,3.299-6.325,6.85-9.072,10.604
		C13.871,194.079,12,184.295,12,174.412C12,153.431,20.172,133.704,35.011,118.865z M90.558,334.005
		C47.241,334.005,12,298.763,12,255.447v-35.992c16.142,28.101,46.127,45.515,78.558,45.515h31.582v11.723h-3.396
		c-3.313,0-6,2.687-6,6s2.687,6,6,6h3.396v22.058h-3.396c-3.313,0-6,2.687-6,6s2.687,6,6,6h3.396v11.253H90.558z M165.593,345.984
		H134.14v-23.232h9.267c3.313,0,6-2.687,6-6s-2.687-6-6-6h-9.267v-22.058h9.267c3.313,0,6-2.687,6-6s-2.687-6-6-6h-9.267v-23.232
		h31.453V345.984z M177.593,264.97h43.197v69.035h-43.197V264.97z M232.79,334.005V264.97h10.314v69.035H232.79z M380.989,310.993
		c-14.84,14.839-34.566,23.011-55.548,23.011h-23.463c9.432-8.519,15.371-20.837,15.371-34.517c0-13.681-5.939-25.998-15.371-34.518
		h23.464c24.187,0,46.927-9.42,64.032-26.526c5.669-5.668,10.545-12.059,14.526-18.993v35.995
		C404,276.428,395.828,296.155,380.989,310.993z"/>
	<circle cx="94.292" cy="282.693" r="7.047"/>
	<circle cx="94.292" cy="316.751" r="7.047"/>
	<circle cx="198.604" cy="282.693" r="7.047"/>
	<circle cx="198.604" cy="316.751" r="7.047"/>
	<circle cx="270.831" cy="282.693" r="7.047"/>
	<circle cx="270.831" cy="316.751" r="7.047"/>
</g>
<g>
</g>
<g>
</g>
<g>
</g>
<g>
</g>
<g>
</g>
<g>
</g>
<g>
</g>
<g>
</g>
<g>
</g>
<g>
</g>
<g>
</g>
<g>
</g>
<g>
</g>
<g>
</g>
<g>
</g>
</svg>
