<?xml version="1.0" encoding="iso-8859-1"?>
<!-- Generator: Adobe Illustrator 18.0.0, SVG Export Plug-In . SVG Version: 6.00 Build 0)  -->
<!DOCTYPE svg PUBLIC "-//W3C//DTD SVG 1.1//EN" "http://www.w3.org/Graphics/SVG/1.1/DTD/svg11.dtd">
<svg version="1.1" id="Capa_1" xmlns="http://www.w3.org/2000/svg" xmlns:xlink="http://www.w3.org/1999/xlink" x="0px" y="0px"
	 viewBox="0 0 452.28 452.28" style="enable-background:new 0 0 452.28 452.28;" xml:space="preserve">
<path d="M362.505,44.28c-10.347,0-18.765,8.418-18.765,18.765V94.95h-27.217c-3.054-11.615-13.643-20.208-26.204-20.208
	c-0.785,0-1.561,0.041-2.33,0.107c0.744-3.895,1.121-7.863,1.121-11.879C289.11,28.248,260.862,0,226.14,0
	c-34.722,0-62.97,28.248-62.97,62.97c0,4.016,0.376,7.985,1.121,11.879c-0.77-0.066-1.546-0.107-2.333-0.107
	c-12.561,0-23.149,8.593-26.203,20.208H108.54V63.045c0-10.347-8.418-18.765-18.765-18.765S71.01,52.698,71.01,63.045V446.28
	c0,3.313,2.686,6,6,6c3.313,0,6-2.687,6-6V63.045c0-3.73,3.035-6.765,6.765-6.765s6.765,3.034,6.765,6.765V446.28
	c0,3.313,2.687,6,6,6c3.314,0,6-2.687,6-6V106.95h26.326v47.896c0,14.708,11.783,26.707,26.404,27.074V339.59
	c0,15.208,12.377,27.58,27.59,27.58c7.368,0,14.294-2.869,19.502-8.077c5.209-5.208,8.078-12.135,8.078-19.503v-66.62
	c0-5.343,4.351-9.689,9.7-9.689c2.589,0,5.025,1.01,6.85,2.835c1.831,1.838,2.84,4.271,2.84,6.854v66.62
	c0,15.208,12.377,27.58,27.59,27.58c7.374,0,14.304-2.869,19.518-8.082c5.206-5.218,8.073-12.143,8.073-19.498V181.921
	c14.62-0.369,26.401-12.368,26.401-27.074V106.95h26.328v339.33c0,3.313,2.687,6,6,6s6-2.687,6-6V63.045
	c0-3.73,3.034-6.765,6.765-6.765s6.766,3.034,6.766,6.765V446.28c0,3.313,2.687,6,6,6s6-2.687,6-6V63.045
	C381.27,52.698,372.852,44.28,362.505,44.28z M305.11,98.862c0.215,1.072,0.216,2.184,0.014,3.259
	c-1.351,7.193-7.679,12.582-15.191,12.582c-5.822,0-11.065-3.278-13.695-8.269c-0.681-1.293-1.013-2.744-1.013-4.206v0
	c0-7.922,5.945-14.795,13.841-15.435C296.917,86.157,303.647,91.569,305.11,98.862z M175.17,62.97
	c0-28.104,22.865-50.97,50.97-50.97s50.97,22.865,50.97,50.97c0,5.887-1.004,11.644-2.966,17.144
	c-4.849,3.62-8.448,8.823-10.029,14.837h-75.953c-1.581-6.012-5.179-11.215-10.026-14.834
	C176.175,74.614,175.17,68.857,175.17,62.97z M251.88,106.95c-7.735,4.524-16.609,6.99-25.74,6.99
	c-9.119,0-17.984-2.459-25.727-6.99H251.88z M163.207,86.793c7.898,0.639,13.844,7.512,13.844,15.436v0
	c0,1.455-0.33,2.898-1.007,4.186c-2.628,5.002-7.875,8.288-13.7,8.288c-7.512,0-13.839-5.389-15.191-12.581
	c-0.201-1.07-0.2-2.177,0.012-3.244C148.621,91.577,155.353,86.158,163.207,86.793z M146.866,154.847v-32.933
	c4.421,3.021,9.755,4.789,15.478,4.789c5.34,0,10.409-1.561,14.708-4.289v32.432c0,8.321-6.771,15.092-15.093,15.092
	C153.636,169.938,146.866,163.168,146.866,154.847z M274.448,350.607c-2.943,2.942-6.859,4.563-11.028,4.563
	c-8.597,0-15.59-6.989-15.59-15.58v-66.62c0-5.78-2.252-11.223-6.348-15.332c-4.099-4.1-9.548-6.357-15.342-6.357
	c-11.965,0-21.7,9.729-21.7,21.689v66.62c0,4.163-1.62,8.075-4.563,11.018c-2.942,2.942-6.854,4.563-11.017,4.563
	c-8.596,0-15.59-6.989-15.59-15.58V179.455c9.304-4.294,15.781-13.706,15.781-24.608v-40.995
	c10.685,7.783,23.665,12.089,37.089,12.089c13.434,0,26.424-4.313,37.086-12.077v40.983c0,10.903,6.478,20.316,15.784,24.61V339.59
	C279.01,343.745,277.388,347.659,274.448,350.607z M290.319,169.938c-8.322,0-15.093-6.771-15.093-15.092v-32.429
	c4.299,2.727,9.367,4.286,14.707,4.286c5.723,0,11.058-1.768,15.479-4.79v32.934C305.412,163.168,298.641,169.938,290.319,169.938z"
	/>
<g>
</g>
<g>
</g>
<g>
</g>
<g>
</g>
<g>
</g>
<g>
</g>
<g>
</g>
<g>
</g>
<g>
</g>
<g>
</g>
<g>
</g>
<g>
</g>
<g>
</g>
<g>
</g>
<g>
</g>
</svg>
