<?xml version="1.0" encoding="iso-8859-1"?>
<!-- Generator: Adobe Illustrator 18.0.0, SVG Export Plug-In . SVG Version: 6.00 Build 0)  -->
<!DOCTYPE svg PUBLIC "-//W3C//DTD SVG 1.1//EN" "http://www.w3.org/Graphics/SVG/1.1/DTD/svg11.dtd">
<svg version="1.1" id="Capa_1" xmlns="http://www.w3.org/2000/svg" xmlns:xlink="http://www.w3.org/1999/xlink" x="0px" y="0px"
	 viewBox="0 0 427.878 427.878" style="enable-background:new 0 0 427.878 427.878;" xml:space="preserve">
<path d="M421.878,226.329h-10.435v-48.294c0-3.313-2.687-6-6-6h-55.937c-3.313,0-6,2.687-6,6v48.301h-22.515v-3.3
	c0-40.709-31.051-74.302-70.712-78.338c16.095-11.418,26.628-30.184,26.628-51.375c0-34.722-28.248-62.97-62.969-62.97
	s-62.969,28.248-62.969,62.97c0,21.191,10.534,39.957,26.628,51.375c-39.661,4.036-70.711,37.629-70.711,78.337v3.3H84.372v-48.301
	c0-3.313-2.687-6-6-6H22.436c-3.314,0-6,2.687-6,6v48.294H6c-3.313,0-6,2.687-6,6s2.687,6,6,6h10.436v48.294c0,3.313,2.686,6,6,6
	h55.936c3.313,0,6-2.687,6-6v-48.287h22.582c0.933,14.1,12.694,25.287,27.025,25.287c5.582,0,10.774-1.698,15.089-4.602v110.915
	c0,15.213,12.376,27.589,27.588,27.589s27.589-12.376,27.589-27.589v-59.46c0-5.346,4.349-9.694,9.694-9.694
	s9.694,4.349,9.694,9.694v59.46c0,15.213,12.376,27.589,27.589,27.589s27.589-12.376,27.589-27.589V259.021
	c4.315,2.905,9.507,4.602,15.089,4.602c14.332,0,26.093-11.187,27.026-25.287h22.582v48.287c0,3.313,2.687,6,6,6h55.937
	c3.313,0,6-2.687,6-6v-48.294h10.435c3.313,0,6-2.687,6-6S425.191,226.329,421.878,226.329z M28.436,184.035h15.968v96.588H28.436
	V184.035z M56.403,280.623v-96.588h15.968v96.588H56.403z M162.97,93.323c0-28.104,22.865-50.97,50.969-50.97
	c28.105,0,50.969,22.865,50.969,50.97s-22.864,50.969-50.969,50.969C185.834,144.292,162.97,121.428,162.97,93.323z M185.63,156.292
	h56.619c33.646,0,61.54,25.03,66.081,57.444c-4.162-2.621-9.082-4.145-14.354-4.145c-5.62,0-10.843,1.726-15.17,4.674v-2.977
	c0-3.313-2.687-6-6-6s-6,2.687-6,6v15.049H161.071v-15.049c0-3.313-2.687-6-6-6s-6,2.687-6,6v2.977
	c-4.327-2.947-9.55-4.673-15.169-4.673c-5.272,0-10.192,1.523-14.354,4.145C124.09,181.322,151.985,156.292,185.63,156.292z
	 M133.979,251.623c-8.309,0-15.069-6.75-15.09-15.054c0.021-8.262,6.747-14.978,15.014-14.978c8.28,0,15.016,6.736,15.016,15.017
	c0,0.356,0.054,1.532,0.024,1.776C148.025,245.833,141.672,251.623,133.979,251.623z M251.222,385.524
	c-8.596,0-15.589-6.993-15.589-15.589v-59.46c0-11.962-9.731-21.694-21.694-21.694c-11.962,0-21.694,9.732-21.694,21.694v59.46
	c0,8.596-6.993,15.589-15.589,15.589s-15.588-6.993-15.588-15.589v-131.6h105.743v131.6
	C266.811,378.531,259.817,385.524,251.222,385.524z M293.899,251.623c-7.5,0-13.726-5.502-14.884-12.68
	c-0.069-0.425-0.055-1.979-0.055-2.335c0-8.28,6.736-15.017,15.017-15.017c8.266,0,14.992,6.716,15.014,14.978
	C308.969,244.873,302.209,251.623,293.899,251.623z M355.507,184.035h15.969v96.588h-15.969V184.035z M399.443,280.623h-15.968
	v-96.588h15.968V280.623z"/>
<g>
</g>
<g>
</g>
<g>
</g>
<g>
</g>
<g>
</g>
<g>
</g>
<g>
</g>
<g>
</g>
<g>
</g>
<g>
</g>
<g>
</g>
<g>
</g>
<g>
</g>
<g>
</g>
<g>
</g>
</svg>
