<?xml version="1.0" encoding="iso-8859-1"?>
<!-- Generator: Adobe Illustrator 18.0.0, SVG Export Plug-In . SVG Version: 6.00 Build 0)  -->
<!DOCTYPE svg PUBLIC "-//W3C//DTD SVG 1.1//EN" "http://www.w3.org/Graphics/SVG/1.1/DTD/svg11.dtd">
<svg version="1.1" id="Capa_1" xmlns="http://www.w3.org/2000/svg" xmlns:xlink="http://www.w3.org/1999/xlink" x="0px" y="0px"
	 viewBox="0 0 454.6 454.6" style="enable-background:new 0 0 454.6 454.6;" xml:space="preserve">
<g>
	<path d="M385.856,71.313h-4.982c-1.854-18.512-10.073-35.663-23.54-48.79C342.433,7.999,322.767,0,301.96,0H152.64
		c-20.808,0-40.474,7.999-55.375,22.523c-13.467,13.127-21.686,30.278-23.54,48.79h-4.982c-8.405,0-15.244,6.838-15.244,15.243
		v54.854c0,8.405,6.838,15.243,15.244,15.243H73.3v27.836c0,3.313,2.687,6,6,6h8.35V217.6c0,18.142,14.759,32.9,32.9,32.9h41.09v38
		H143c-14.336,0-26,11.663-26,26v27.971c-8.304,1.243-14.7,8.404-14.7,17.048V372c0,9.517,7.743,17.26,17.26,17.26h0.274
		c4.374,8.562,13.335,14.24,23.166,14.24c9.84,0,18.802-5.678,23.169-14.24h2.871c9.517,0,17.26-7.743,17.26-17.26v-0.24h21.84
		v59.14H186.3v-5.7c0-3.313-2.687-6-6-6h-48.6c-16.211,0-29.4,13.188-29.4,29.4c0,3.313,2.687,6,6,6h72c3.313,0,6-2.687,6-6v-5.7
		h81.68v5.7c0,3.313,2.687,6,6,6h72c0.007-0.001,0.014-0.001,0.02,0c3.313,0,6-2.687,6-6c0-0.187-0.008-0.371-0.025-0.553
		c-0.296-15.957-13.369-28.848-29.395-28.848h-48.6c-3.313,0-6,2.687-6,6v5.7h-21.84v-59.14h21.84V372
		c0,9.517,7.743,17.26,17.26,17.26h2.871c4.368,8.562,13.329,14.24,23.169,14.24c9.831,0,18.792-5.678,23.166-14.24h0.274
		c9.517,0,17.26-7.743,17.26-17.26v-12.48c0-8.645-6.396-15.805-14.7-17.048V314.5c0-14.337-11.664-26-26-26h-18.64v-38h41.09
		c18.141,0,32.9-14.759,32.9-32.9V190.49h8.67c3.313,0,6-2.687,6-6v-27.836h4.557c8.405,0,15.244-6.838,15.244-15.243V86.557
		C401.1,78.151,394.261,71.313,385.856,71.313z M115.365,442.6c2.45-6.647,8.847-11.4,16.334-11.4h42.6v11.4H115.365z
		 M279.98,431.199h42.6c7.487,0,13.884,4.753,16.334,11.4H279.98V431.199z M65.5,141.411V86.557c0-1.788,1.455-3.243,3.244-3.243
		h22.513c1.789,0,3.244,1.455,3.244,3.243v54.854c0,1.788-1.455,3.243-3.244,3.243H68.743C66.955,144.654,65.5,143.199,65.5,141.411
		z M143,391.5c-2.734,0-5.342-0.818-7.551-2.24h15.109C148.347,390.682,145.738,391.5,143,391.5z M174.3,372
		c0,2.9-2.359,5.26-5.26,5.26h-49.48c-2.9,0-5.26-2.359-5.26-5.26v-12.48c0-2.9,2.359-5.26,5.26-5.26h49.48
		c2.9,0,5.26,2.359,5.26,5.26V372z M186.3,359.76v-0.24c0-9.517-7.743-17.26-17.26-17.26H169v-1.76h18.168
		c0.295,3.951,1.851,7.74,4.501,10.777c3.512,4.026,8.59,6.336,13.933,6.336h2.538v2.146H186.3z M205.602,345.613
		c-1.903,0-3.64-0.79-4.89-2.224c-1.251-1.434-1.797-3.262-1.539-5.146l2.565-18.709c0.932-6.796,6.807-11.921,13.666-11.921h23.471
		c6.859,0,12.734,5.125,13.666,11.921l2.565,18.708c0.258,1.886-0.288,3.714-1.539,5.147c-1.25,1.434-2.987,2.224-4.89,2.224
		H205.602z M220.14,430.899v-73.286h14v73.286H220.14z M246.14,359.76v-2.146h2.537c5.343,0,10.421-2.31,13.934-6.335
		c2.65-3.038,4.206-6.827,4.501-10.778h18.168v1.76h-0.04c-9.517,0-17.26,7.743-17.26,17.26v0.24H246.14z M311.28,391.5
		c-2.738,0-5.348-0.818-7.558-2.24h15.109C316.621,390.682,314.013,391.5,311.28,391.5z M339.98,359.52V372
		c0,2.9-2.359,5.26-5.26,5.26h-49.48c-2.9,0-5.26-2.359-5.26-5.26v-12.48c0-2.9,2.359-5.26,5.26-5.26h49.48
		C337.62,354.26,339.98,356.619,339.98,359.52z M333.73,238.5h-47.09c-3.313,0-6,2.687-6,6v44h-9.219c-3.313,0-6,2.687-6,6
		s2.687,6,6,6h39.858c7.72,0,14,6.28,14,14v27.76h-28L297.277,320c0-3.313-2.687-6-6-6s-6,2.687-6,6v8.5h-19.395l-1.453-10.597
		c-1.742-12.707-12.728-22.29-25.554-22.29h-23.471c-12.826,0-23.812,9.583-25.555,22.29l-1.453,10.597H169V320c0-3.313-2.687-6-6-6
		s-6,2.687-6,6v22.26h-28V314.5c0-7.72,6.28-14,14-14h39.858c3.313,0,6-2.687,6-6s-2.687-6-6-6h-9.218v-44c0-3.313-2.686-6-6-6
		h-47.09c-11.524,0-20.9-9.376-20.9-20.9v-15.135c4.511,3.118,9.943,4.936,15.68,4.936c5.749,0,11.177-1.806,15.68-4.913V212
		c0,3.313,2.687,6,6,6s6-2.687,6-6v-5.923c17.653-3.415,35.633-5.772,53.554-7.011c9.11,5.129,19.608,8.069,30.786,8.069
		c11.156,0,21.636-2.929,30.734-8.039c17.797,1.237,35.653,3.583,53.186,6.979V212c0,3.313,2.687,6,6,6s6-2.687,6-6v-9.536
		c4.511,3.118,9.943,4.936,15.68,4.936c5.749,0,11.177-1.806,15.68-4.913V217.6C354.63,229.124,345.254,238.5,333.73,238.5z
		 M101.91,187.814c-1.254-2.062-1.28-4.675-0.082-6.769c2.646-4.627,7.445-7.838,12.916-8.039c4.301-0.16,8.378,1.406,11.47,4.39
		c0.963,0.929,1.789,1.957,2.471,3.063c1.424,2.308,1.415,5.168-0.012,7.475c-2.794,4.518-7.805,7.467-13.343,7.467
		C109.763,195.4,104.696,192.396,101.91,187.814z M227.35,195.136c-28.104,0-50.969-22.864-50.969-50.969s22.865-50.97,50.969-50.97
		s50.969,22.865,50.969,50.97S255.454,195.136,227.35,195.136z M325.53,187.814c-1.254-2.062-1.28-4.675-0.082-6.769
		c2.646-4.627,7.445-7.838,12.916-8.039c4.303-0.16,8.379,1.406,11.47,4.39c1.071,1.034,1.973,2.191,2.696,3.44
		c1.201,2.075,1.191,4.659-0.014,6.732c-2.746,4.725-7.88,7.833-13.566,7.833C333.383,195.4,328.316,192.396,325.53,187.814z
		 M369.3,178.49h-4.603c-1.432-3.622-3.631-6.933-6.53-9.73c-5.458-5.266-12.661-7.998-20.237-7.746
		c-12.628,0.463-26.343,11.236-26.343,25.987c0,2.008,0.016,4.497,0,6.843c-1.967-0.344-26.261-4.292-39.331-5.593
		c11.162-11.368,18.063-26.932,18.063-44.084c0-34.722-28.248-62.97-62.969-62.97s-62.969,28.248-62.969,62.97
		c0,17.133,6.887,32.681,18.027,44.046c-13.199,1.306-26.382,3.184-39.398,5.633v-5.166c0-7.579-3.005-14.653-8.463-19.92
		c-5.457-5.266-12.664-7.998-20.237-7.746c-11.006,0.404-20.474,7.593-24.539,17.477H85.3v-21.836h5.957
		c8.405,0,15.244-6.838,15.244-15.243V86.557c0-8.405-6.838-15.243-15.244-15.243h-5.475c1.803-15.246,8.722-29.34,19.86-40.197
		C118.288,18.789,134.979,12,152.64,12h149.32c17.66,0,34.352,6.789,46.998,19.116c11.138,10.857,18.057,24.951,19.86,40.197h-5.474
		c-8.405,0-15.244,6.838-15.244,15.243v54.854c0,8.405,6.838,15.243,15.244,15.243h5.956V178.49z M389.1,141.411
		c0,1.788-1.455,3.243-3.244,3.243h-22.513c-1.789,0-3.244-1.455-3.244-3.243V86.557c0-1.788,1.455-3.243,3.244-3.243h22.513
		c1.789,0,3.244,1.455,3.244,3.243V141.411z"/>
	<path d="M147.4,18.996c-3.313,0-6,2.687-6,6V157c0,3.313,2.687,6,6,6s6-2.687,6-6V24.996C153.4,21.683,150.714,18.996,147.4,18.996
		z"/>
	<path d="M307.3,18.996c-3.313,0-6,2.687-6,6V157c0,3.313,2.687,6,6,6s6-2.687,6-6V24.996C313.3,21.683,310.613,18.996,307.3,18.996
		z"/>
	<path d="M227.35,18.996c-3.313,0-6,2.687-6,6V70c0,3.313,2.687,6,6,6s6-2.687,6-6V24.996
		C233.35,21.683,230.663,18.996,227.35,18.996z"/>
</g>
<g>
</g>
<g>
</g>
<g>
</g>
<g>
</g>
<g>
</g>
<g>
</g>
<g>
</g>
<g>
</g>
<g>
</g>
<g>
</g>
<g>
</g>
<g>
</g>
<g>
</g>
<g>
</g>
<g>
</g>
</svg>
