<?xml version="1.0" encoding="iso-8859-1"?>
<!-- Generator: Adobe Illustrator 18.0.0, SVG Export Plug-In . SVG Version: 6.00 Build 0)  -->
<!DOCTYPE svg PUBLIC "-//W3C//DTD SVG 1.1//EN" "http://www.w3.org/Graphics/SVG/1.1/DTD/svg11.dtd">
<svg version="1.1" id="Capa_1" xmlns="http://www.w3.org/2000/svg" xmlns:xlink="http://www.w3.org/1999/xlink" x="0px" y="0px"
	 viewBox="0 0 430.839 430.839" style="enable-background:new 0 0 430.839 430.839;" xml:space="preserve">
<g>
	<path d="M251.851,228.327c-4.082,0-8.049,0.49-11.861,1.39l0.179-72.358c0-11.598-4.517-22.501-12.717-30.703
		c-2.848-2.847-6.027-5.239-9.44-7.163c20.859-10.271,35.25-31.744,35.25-56.523C253.262,28.248,225.014,0,190.293,0
		s-62.969,28.248-62.969,62.969c0,26.704,16.717,49.563,40.229,58.703c-17.493,10.045-29.343,28.869-29.433,50.452
		c0,0.124,0.003,0.249,0.01,0.374l5.279,90.495c0.895,15.551,8.477,29.954,20.805,39.518c7.254,5.623,11.4,13.967,11.375,22.894
		l-0.18,73.271c-0.037,17.686,14.319,32.114,32.004,32.163c0.029,0,0.057,0,0.085,0c13.906,0,26.152-8.855,30.489-22.054
		c1.05-3.189,1.589-6.536,1.601-9.953l0.161-68.621c3.884,0.936,7.933,1.445,12.101,1.445c28.488,0,51.665-23.177,51.665-51.665
		C303.515,251.504,280.339,228.327,251.851,228.327z M205.17,257.875l-17.038-17.038c-6.122-6.122-9.633-14.6-9.633-23.258v-54.7
		c0-7.707,6.048-14.2,13.477-14.474c3.837-0.133,7.479,1.252,10.239,3.914c2.763,2.665,4.284,6.244,4.284,10.079v54.721
		c0,1.592,0.632,3.118,1.758,4.244l15.385,15.377C215.705,241.935,209.275,249.246,205.17,257.875z M139.323,62.969
		c0-28.104,22.865-50.969,50.969-50.969s50.969,22.864,50.969,50.969s-22.865,50.97-50.969,50.97S139.323,91.073,139.323,62.969z
		 M227.589,398.798c-0.007,2.146-0.344,4.244-1,6.238c-2.715,8.262-10.382,13.803-19.089,13.803c-0.018,0-0.036,0-0.054,0
		c-11.071-0.03-20.06-9.064-20.037-20.136l0.18-73.268c0.035-12.676-5.805-24.488-16.022-32.407
		c-9.586-7.438-15.482-18.636-16.178-30.729l-5.269-90.307c0.204-25.452,20.969-46.054,46.443-46.054c0.064,0,0.132,0,0.196,0
		c8.386,0,16.272,3.269,22.207,9.202c5.935,5.936,9.203,13.825,9.203,22.203l-0.165,66.789l-9.504-9.5v-52.234
		c0-7.122-2.824-13.77-7.953-18.716c-5.126-4.946-11.88-7.538-19.007-7.27c-14.041,0.518-25.04,12.143-25.04,26.466v54.7
		c0,11.817,4.792,23.388,13.147,31.743l21.391,21.389c-0.549,3.013-0.851,6.111-0.851,9.28c0,19.792,11.192,37.011,27.574,45.685
		L227.589,398.798z M251.851,319.656c-21.871,0-39.665-17.794-39.665-39.665s17.793-39.664,39.665-39.664
		s39.665,17.793,39.665,39.664S273.722,319.656,251.851,319.656z"/>
	<path d="M251.851,262.399c-9.7,0-17.592,7.892-17.592,17.592c0,9.701,7.892,17.593,17.592,17.593s17.592-7.892,17.592-17.593
		C269.443,270.291,261.551,262.399,251.851,262.399z M251.851,285.584c-3.083,0-5.592-2.509-5.592-5.593
		c0-3.083,2.509-5.592,5.592-5.592s5.592,2.509,5.592,5.592C257.443,283.075,254.934,285.584,251.851,285.584z"/>
</g>
<g>
</g>
<g>
</g>
<g>
</g>
<g>
</g>
<g>
</g>
<g>
</g>
<g>
</g>
<g>
</g>
<g>
</g>
<g>
</g>
<g>
</g>
<g>
</g>
<g>
</g>
<g>
</g>
<g>
</g>
</svg>
