<?xml version="1.0" encoding="iso-8859-1"?>
<!-- Generator: Adobe Illustrator 18.0.0, SVG Export Plug-In . SVG Version: 6.00 Build 0)  -->
<!DOCTYPE svg PUBLIC "-//W3C//DTD SVG 1.1//EN" "http://www.w3.org/Graphics/SVG/1.1/DTD/svg11.dtd">
<svg version="1.1" id="Capa_1" xmlns="http://www.w3.org/2000/svg" xmlns:xlink="http://www.w3.org/1999/xlink" x="0px" y="0px"
	 viewBox="0 0 454 454" style="enable-background:new 0 0 454 454;" xml:space="preserve">
<path d="M363.364,0C353.018,0,344.6,8.418,344.6,18.766V50.67h-47.17V49c0-7.381-2.871-14.309-8.078-19.502
	c-5.215-5.216-12.145-8.088-19.512-8.088c-15.213,0-27.59,12.377-27.59,27.59v1.67h-19.38V49c0-7.373-2.874-14.301-8.082-19.497
	c-5.206-5.219-12.134-8.093-19.509-8.093c-15.213,0-27.59,12.377-27.59,27.59v1.67h-58.29V18.766C109.399,8.418,100.981,0,90.635,0
	S71.87,8.418,71.87,18.766V448c0,3.313,2.687,6,6,6s6-2.687,6-6V18.766c0-3.73,3.034-6.766,6.765-6.766s6.765,3.035,6.765,6.766V448
	c0,3.313,2.687,6,6,6s6-2.687,6-6V62.67h44.17v3.78c0,9.497,5.719,18.034,14.12,21.885V364.11c0,15.158,12.332,27.49,27.49,27.49
	s27.49-12.332,27.49-27.49v-28.715c3.223,0.511,6.525,0.783,9.89,0.783c3.403,0,6.741-0.28,10-0.803v28.734
	c0,15.158,12.332,27.49,27.49,27.49s27.49-12.332,27.49-27.493l-0.11-238.947V88.419c2.655-1.185,5.089-2.852,7.184-4.947
	c4.544-4.546,7.047-10.591,7.047-17.022v-3.78H344.6V448c0,3.313,2.687,6,6,6s6-2.687,6-6V18.766c0-3.73,3.034-6.766,6.765-6.766
	s6.766,3.035,6.766,6.766V448c0,3.313,2.687,6,6,6s6-2.687,6-6V18.766C382.13,8.418,373.712,0,363.364,0z M242.25,62.67V80.7
	c0,2.596-1.006,5.031-2.832,6.857c-1.834,1.833-4.27,2.843-6.858,2.843c-5.343,0-9.689-4.352-9.689-9.7V62.67H242.25z M179.689,49
	c0-8.597,6.993-15.59,15.59-15.59c4.164,0,8.075,1.622,11.022,4.577c2.946,2.939,4.568,6.851,4.568,11.013v31.7
	c0,11.966,9.729,21.7,21.689,21.7c5.793,0,11.242-2.258,15.344-6.357c4.093-4.095,6.347-9.543,6.347-15.343V49
	c0-8.597,6.993-15.59,15.59-15.59c4.162,0,8.078,1.624,11.032,4.578c2.939,2.932,4.558,6.843,4.558,11.012v35.104
	c0,0.018,0,0.037,0,0.055v41.004l0.053,113.989c-11.221-17.376-30.744-28.912-52.923-28.912c-22.144,0-41.641,11.5-52.87,28.831
	V84.184c0-0.007,0-0.013,0-0.02V49z M165.569,66.45v-3.78h2.12v10.573C166.349,71.284,165.569,68.932,165.569,66.45z M210.67,364.11
	c0,8.541-6.949,15.49-15.49,15.49s-15.49-6.949-15.49-15.49v-56.763c7.328,11.309,18.17,20.136,30.98,24.901V364.11z
	 M181.591,273.209c0-28.104,22.864-50.969,50.969-50.969s50.97,22.864,50.97,50.969s-22.865,50.97-50.97,50.97
	S181.591,301.313,181.591,273.209z M270.05,379.601c-8.541,0-15.49-6.949-15.49-15.49v-31.906
	c12.811-4.793,23.647-13.649,30.954-24.987l0.026,56.893C285.54,372.651,278.591,379.601,270.05,379.601z M299.66,66.45
	c0,2.54-0.788,4.954-2.23,6.98V62.67h2.23V66.45z"/>
<g>
</g>
<g>
</g>
<g>
</g>
<g>
</g>
<g>
</g>
<g>
</g>
<g>
</g>
<g>
</g>
<g>
</g>
<g>
</g>
<g>
</g>
<g>
</g>
<g>
</g>
<g>
</g>
<g>
</g>
</svg>
