<?xml version="1.0" encoding="iso-8859-1"?>
<!-- Generator: Adobe Illustrator 18.0.0, SVG Export Plug-In . SVG Version: 6.00 Build 0)  -->
<!DOCTYPE svg PUBLIC "-//W3C//DTD SVG 1.1//EN" "http://www.w3.org/Graphics/SVG/1.1/DTD/svg11.dtd">
<svg version="1.1" id="Capa_1" xmlns="http://www.w3.org/2000/svg" xmlns:xlink="http://www.w3.org/1999/xlink" x="0px" y="0px"
	 viewBox="0 0 418.624 418.624" style="enable-background:new 0 0 418.624 418.624;" xml:space="preserve">
<g>
	<path d="M410.143,166.11L378.796,41.844c-0.672-2.665-3.069-4.532-5.818-4.532h-37.673c-25.669,0-49.821,9.977-68.006,28.094
		l-31.24,31.124c-14.749,14.691-38.747,14.692-53.495,0l-31.241-31.124c-18.185-18.117-42.336-28.094-68.005-28.094H45.645
		c-2.749,0-5.146,1.868-5.818,4.532L8.481,166.107C-8.913,235.06,0.639,307.206,35.378,369.256l5.031,8.987
		c1.061,1.895,3.063,3.069,5.235,3.069h327.333c2.172,0,4.174-1.174,5.235-3.069l5.032-8.987
		C417.985,307.207,427.537,235.062,410.143,166.11z M174.095,105.03c9.709,9.673,22.463,14.509,35.217,14.509
		c12.754,0,25.508-4.836,35.217-14.509l31.241-31.124c14.494-14.44,33.322-22.948,53.536-24.361v31.835
		c0,4.617-0.378,9.146-1.083,13.568c-35.973,6.854-64.661,35.337-71.782,71.266c-4.223,0.642-8.545,0.977-12.944,0.977h-68.368
		c-4.423,0-8.768-0.337-13.013-0.986c-7.12-35.901-35.774-64.366-71.711-71.243c-0.707-4.426-1.086-8.96-1.086-13.582V49.546
		c20.214,1.413,39.042,9.921,53.536,24.361L174.095,105.03z M325.071,107.962c-8.548,26.168-29.345,46.84-55.596,55.199
		C276.819,136.335,298.198,115.108,325.071,107.962z M149.076,163.136c-26.211-8.372-46.973-29.021-55.517-55.156
		C120.389,115.143,141.732,136.346,149.076,163.136z M372.775,363.394l-3.313,5.918H49.162l-3.313-5.918
		c-2.625-4.69-5.083-9.446-7.407-14.25h341.74C377.858,353.948,375.4,358.704,372.775,363.394z M385.627,337.144H32.997
		c-22.465-52.961-27.122-111.647-12.88-168.101L50.319,49.312h26.999v32.069c0,53.933,43.877,97.81,97.81,97.81h68.368
		c53.932,0,97.81-43.877,97.81-97.81V49.312h26.999l30.204,119.733C412.749,225.499,408.092,284.185,385.627,337.144z"/>
</g>
<g>
</g>
<g>
</g>
<g>
</g>
<g>
</g>
<g>
</g>
<g>
</g>
<g>
</g>
<g>
</g>
<g>
</g>
<g>
</g>
<g>
</g>
<g>
</g>
<g>
</g>
<g>
</g>
<g>
</g>
</svg>
