<?xml version="1.0" encoding="iso-8859-1"?>
<!-- Generator: Adobe Illustrator 18.0.0, SVG Export Plug-In . SVG Version: 6.00 Build 0)  -->
<!DOCTYPE svg PUBLIC "-//W3C//DTD SVG 1.1//EN" "http://www.w3.org/Graphics/SVG/1.1/DTD/svg11.dtd">
<svg version="1.1" id="Capa_1" xmlns="http://www.w3.org/2000/svg" xmlns:xlink="http://www.w3.org/1999/xlink" x="0px" y="0px"
	 viewBox="0 0 430.851 430.851" style="enable-background:new 0 0 430.851 430.851;" xml:space="preserve">
<g>
	<path d="M430.851,157.435c0-58.88-47.909-106.782-106.797-106.782H106.796c-28.521,0-55.339,11.103-75.517,31.265
		C11.108,102.089,0,128.908,0,157.437l0.004,115.97c0,58.885,47.907,106.792,106.792,106.792h217.262
		c58.885,0,106.791-47.907,106.792-106.792l0,0L430.851,157.435z M324.054,62.653c52.271,0,94.797,42.519,94.797,94.781
		l-0.001,66.831c-17.814-34.223-53.617-57.651-94.793-57.651h-28.465V62.653H324.054z M106.797,252.228
		c-29.351,0-57.049-13.675-74.958-36.777c17.354-22.393,44.498-36.836,74.956-36.836h217.262c30.46,0,57.607,14.446,74.961,36.842
		c-2.443,3.155-5.099,6.178-7.938,9.016c-17.886,17.898-41.69,27.755-67.027,27.755H106.797z M147.259,62.653h136.333v103.961
		H147.259V62.653z M12,157.435c0-25.322,9.86-49.127,27.763-67.03c17.911-17.896,41.717-27.751,67.034-27.751h28.463v103.961
		h-28.464c-41.176,0-76.98,23.428-94.793,57.653L12,157.435z M12.004,273.406c0-17.316,4.671-33.559,12.813-47.544
		c20.2,24.166,50.232,38.366,81.98,38.366h128.806v103.97H106.795C54.527,368.198,12.004,325.674,12.004,273.406z M324.057,368.198
		h-76.454v-103.97h76.45c28.544,0,55.363-11.106,75.514-31.271c2.265-2.264,4.423-4.637,6.472-7.09
		c8.14,13.984,12.81,30.226,12.81,47.54C418.849,325.674,376.325,368.198,324.057,368.198z"/>
	<path d="M183.722,76.827c-11.524,0-20.899,9.375-20.899,20.9v33.553c0,11.524,9.375,20.9,20.899,20.9
		c11.524,0,20.9-9.375,20.9-20.9V97.727C204.622,86.202,195.247,76.827,183.722,76.827z M192.622,131.28c0,4.907-3.993,8.9-8.9,8.9
		s-8.899-3.993-8.899-8.9V97.727c0-4.907,3.992-8.9,8.899-8.9s8.9,3.993,8.9,8.9V131.28z"/>
	<path d="M130.747,291.083c-3.313,0-6,2.687-6,6v38.259c0,3.313,2.687,6,6,6s6-2.687,6-6v-38.259
		C136.747,293.77,134.061,291.083,130.747,291.083z"/>
	<path d="M315.507,291.083c-3.313,0-6,2.687-6,6v38.259c0,3.313,2.687,6,6,6s6-2.687,6-6v-38.259
		C321.507,293.77,318.821,291.083,315.507,291.083z"/>
	<path d="M278.555,291.083c-3.313,0-6,2.687-6,6v38.259c0,3.313,2.687,6,6,6s6-2.687,6-6v-38.259
		C284.555,293.77,281.869,291.083,278.555,291.083z"/>
	<path d="M167.699,291.083c-3.313,0-6,2.687-6,6v38.259c0,3.313,2.687,6,6,6s6-2.687,6-6v-38.259
		C173.699,293.77,171.013,291.083,167.699,291.083z"/>
	<path d="M204.651,291.083c-3.313,0-6,2.687-6,6v38.259c0,3.313,2.687,6,6,6s6-2.687,6-6v-38.259
		C210.651,293.77,207.965,291.083,204.651,291.083z"/>
</g>
<g>
</g>
<g>
</g>
<g>
</g>
<g>
</g>
<g>
</g>
<g>
</g>
<g>
</g>
<g>
</g>
<g>
</g>
<g>
</g>
<g>
</g>
<g>
</g>
<g>
</g>
<g>
</g>
<g>
</g>
</svg>
