<?xml version="1.0" encoding="iso-8859-1"?>
<!-- Generator: Adobe Illustrator 18.0.0, SVG Export Plug-In . SVG Version: 6.00 Build 0)  -->
<!DOCTYPE svg PUBLIC "-//W3C//DTD SVG 1.1//EN" "http://www.w3.org/Graphics/SVG/1.1/DTD/svg11.dtd">
<svg version="1.1" id="Capa_1" xmlns="http://www.w3.org/2000/svg" xmlns:xlink="http://www.w3.org/1999/xlink" x="0px" y="0px"
	 viewBox="0 0 384 384" style="enable-background:new 0 0 384 384;" xml:space="preserve">
<path d="M373.233,128.447c-8.613-24.54-21.886-46.688-39.454-65.9l12.252-33.25c3.689-10.011-1.115-21.116-10.937-25.282
	c-9.822-4.166-21.145,0.097-25.779,9.706l-9.389,19.467C268.045,11.453,230.888,0,192,0c-38.892,0-76.046,11.454-107.916,33.188
	l-9.389-19.467C70.061,4.111,58.737-0.152,48.916,4.015C39.094,8.181,34.29,19.286,37.979,29.296l12.253,33.252
	c-17.58,19.224-30.856,41.371-39.465,65.9C3.623,148.818,0,170.201,0,192c0,105.869,86.131,192,192,192s192-86.131,192-192
	C384,170.201,380.378,148.819,373.233,128.447z M335.782,300.166c-34.27,20.59-88.465,32.799-143.782,32.799
	c-56.887,0-110.981-12.913-145.097-34.574c-16.869-22.944-28.439-50.011-32.878-79.39C56.787,245.438,122.652,261.104,192,261.104
	c69.341,0,135.204-15.659,177.972-42.083C365.416,249.152,353.363,276.854,335.782,300.166z M192,12
	c37.06,0,72.439,11.097,102.649,32.129l-7.469,15.486c-2.25,0.664-4.431,1.278-6.607,1.858C253.69,68.664,223.063,72.465,192,72.465
	c-31.016,0-61.645-3.802-88.577-10.994c-2.349-0.626-4.521-1.237-6.59-1.85L89.361,44.13C119.56,23.097,154.935,12,192,12z
	 M63.977,99.852c3.383,9.182,0.465,19.385-7.261,25.39c-2.617,2.033-3.089,5.803-1.056,8.419c1.183,1.522,2.953,2.319,4.742,2.319
	c1.287,0,2.583-0.412,3.677-1.263c11.872-9.227,16.356-24.905,11.157-39.014L49.239,25.147c-1.472-3.993,0.445-8.423,4.363-10.085
	c3.918-1.662,8.435,0.038,10.284,3.872l32.665,67.727c6.531,13.543,20.924,21.212,35.806,19.091c3.28-0.468,5.561-3.507,5.092-6.788
	s-3.506-5.565-6.788-5.092c-9.685,1.384-19.051-3.61-23.302-12.424l-3.62-7.505c27.085,6.884,57.508,10.523,88.26,10.523
	c30.801,0,61.229-3.64,88.27-10.524l-3.621,7.507c-4.251,8.813-13.616,13.807-23.302,12.424c-3.282-0.468-6.319,1.812-6.788,5.092
	c-0.468,3.28,1.812,6.319,5.092,6.788c14.888,2.121,29.274-5.548,35.806-19.091l32.665-67.727c1.849-3.833,6.367-5.535,10.284-3.872
	c3.918,1.662,5.835,6.092,4.363,10.085l-25.998,70.556c-5.199,14.109-0.715,29.788,11.157,39.014
	c1.095,0.851,2.391,1.263,3.677,1.263c1.789,0,3.56-0.797,4.742-2.319c2.033-2.616,1.561-6.386-1.056-8.419
	c-7.726-6.004-10.644-16.208-7.261-25.389l9.038-24.529c13.376,15.667,23.83,33.283,31.165,52.528
	c-25.813,15.182-59.749,26.485-98.566,32.769c-22.372,3.627-45.813,5.466-69.67,5.466c-23.862,0-47.298-1.839-69.657-5.465
	l-0.462-0.073c-38.619-6.297-72.395-17.571-98.117-32.696c7.333-19.236,17.79-36.85,31.175-52.526L63.977,99.852z M19.8,139.417
	c26.82,15.315,61.395,26.7,100.611,33.048l0.489,0.077h0.001c22.847,3.678,46.766,5.543,71.099,5.543
	c24.499,0,48.585-1.891,71.589-5.62c39.224-6.35,73.799-17.734,100.612-33.048C369.378,156.387,372,174.04,372,192
	c0,3.889-0.138,7.746-0.383,11.575c-1.055,0.745-4.403,2.998-4.403,2.998C326.503,233.226,261.192,249.104,192,249.104
	c-70.015,0-136.05-16.261-176.657-43.508c-1.006-0.671-1.989-1.354-2.961-2.036C12.138,199.736,12,195.884,12,192
	C12,174.039,14.623,156.385,19.8,139.417z M64.652,319.088c34.01,16.667,76.998,25.877,127.348,25.877
	c46.036,0,89.214-7.827,123.291-21.947C283.056,353.37,239.665,372,192,372C142.308,372,97.256,351.758,64.652,319.088z"/>
<g>
</g>
<g>
</g>
<g>
</g>
<g>
</g>
<g>
</g>
<g>
</g>
<g>
</g>
<g>
</g>
<g>
</g>
<g>
</g>
<g>
</g>
<g>
</g>
<g>
</g>
<g>
</g>
<g>
</g>
</svg>
