<?xml version="1.0" encoding="iso-8859-1"?>
<!-- Generator: Adobe Illustrator 18.0.0, SVG Export Plug-In . SVG Version: 6.00 Build 0)  -->
<!DOCTYPE svg PUBLIC "-//W3C//DTD SVG 1.1//EN" "http://www.w3.org/Graphics/SVG/1.1/DTD/svg11.dtd">
<svg version="1.1" id="Capa_1" xmlns="http://www.w3.org/2000/svg" xmlns:xlink="http://www.w3.org/1999/xlink" x="0px" y="0px"
	 viewBox="0 0 393.807 393.807" style="enable-background:new 0 0 393.807 393.807;" xml:space="preserve">
<g>
	<path d="M196.903,0C88.33,0,0,88.331,0,196.904s88.33,196.903,196.903,196.903s196.903-88.33,196.903-196.903S305.477,0,196.903,0z
		 M196.903,381.806C94.947,381.806,12,298.859,12,196.904C12,94.948,94.947,12,196.903,12s184.903,82.947,184.903,184.903
		C381.807,298.859,298.859,381.806,196.903,381.806z"/>
	<path d="M196.903,43.163c-84.773,0-153.741,68.968-153.741,153.741s68.968,153.741,153.741,153.741
		c84.772,0,153.74-68.968,153.74-153.741S281.676,43.163,196.903,43.163z M196.903,338.644
		c-78.156,0-141.741-63.584-141.741-141.741S118.747,55.163,196.903,55.163s141.74,63.584,141.74,141.741
		S275.06,338.644,196.903,338.644z"/>
	<path d="M228.448,196.904c0-17.394-14.151-31.545-31.545-31.545s-31.545,14.151-31.545,31.545
		c0,17.394,14.151,31.544,31.545,31.544S228.448,214.297,228.448,196.904z M196.903,216.448c-10.777,0-19.545-8.768-19.545-19.544
		c0-10.777,8.768-19.545,19.545-19.545s19.545,8.768,19.545,19.545C216.448,207.68,207.681,216.448,196.903,216.448z"/>
	<path d="M174.365,245.28c-10.471,0-18.989,8.519-18.989,18.989v3.485c0,3.313,2.687,6,6,6s6-2.687,6-6v-3.485
		c0-3.854,3.136-6.989,6.989-6.989s6.989,3.135,6.989,6.989v5.878c0,5.207-3.513,9.785-8.542,11.133
		c-10.267,2.75-17.437,12.094-17.437,22.723v4.937c0,3.313,2.687,6,6,6h25.979c3.313,0,6-2.687,6-6s-2.687-6-6-6h-19.93
		c0.44-4.757,3.81-8.814,8.493-10.069c10.267-2.751,17.437-12.095,17.437-22.724v-5.878
		C193.354,253.799,184.836,245.28,174.365,245.28z"/>
	<path d="M219.124,245.28c-10.646,0-19.306,8.661-19.306,19.306v31.048c0,10.646,8.66,19.306,19.306,19.306
		s19.307-8.661,19.307-19.306v-31.048C238.431,253.941,229.77,245.28,219.124,245.28z M226.431,295.634
		c0,4.029-3.277,7.306-7.307,7.306c-4.028,0-7.306-3.277-7.306-7.306v-31.048c0-4.029,3.277-7.306,7.306-7.306
		c4.029,0,7.307,3.277,7.307,7.306V295.634z"/>
</g>
<g>
</g>
<g>
</g>
<g>
</g>
<g>
</g>
<g>
</g>
<g>
</g>
<g>
</g>
<g>
</g>
<g>
</g>
<g>
</g>
<g>
</g>
<g>
</g>
<g>
</g>
<g>
</g>
<g>
</g>
</svg>
