<?xml version="1.0" encoding="iso-8859-1"?>
<!-- Generator: Adobe Illustrator 18.0.0, SVG Export Plug-In . SVG Version: 6.00 Build 0)  -->
<!DOCTYPE svg PUBLIC "-//W3C//DTD SVG 1.1//EN" "http://www.w3.org/Graphics/SVG/1.1/DTD/svg11.dtd">
<svg version="1.1" id="Capa_1" xmlns="http://www.w3.org/2000/svg" xmlns:xlink="http://www.w3.org/1999/xlink" x="0px" y="0px"
	 viewBox="0 0 462.012 462.012" style="enable-background:new 0 0 462.012 462.012;" xml:space="preserve">
<path d="M461.624,298.472c-1.171-3.099-4.632-4.665-7.733-3.493c-18.792,7.098-39.393,5.726-56.789-3.22
	c8.48-11.064,12.968-24.271,12.968-38.271c0-34.723-28.244-62.971-62.96-62.971c-18.357,0-34.901,7.899-46.421,20.473
	l-31.795-42.989c-9.607-12.991-25.489-19.49-41.446-16.96l-65.427,10.368c-15.277,2.42-25.884,16.84-23.644,32.146
	c1.115,7.621,5.16,14.313,11.39,18.843c6.229,4.532,13.843,6.32,21.437,5.031l55.623-9.424l9.915,13.278
	c3.037,4.067,3.903,9.176,2.377,14.017c-1.526,4.84-5.166,8.526-9.984,10.115c-39.276,12.943-112.956,37.767-133.616,44.732
	c-3.852-2.216-7.515-4.794-10.917-7.739c-2.254-1.951-5.598-1.951-7.852,0c-18.855,16.318-45.211,21.39-68.786,13.237
	c-3.133-1.09-6.548,0.577-7.631,3.709c-1.084,3.131,0.577,6.548,3.709,7.631c26.006,8.997,54.907,4.244,76.633-12.313
	c14.262,10.88,31.749,16.82,49.778,16.82c18.028,0,35.516-5.939,49.777-16.819c14.262,10.88,31.748,16.819,49.777,16.819
	c18.028,0,35.516-5.939,49.777-16.819c14.262,10.88,31.748,16.819,49.777,16.819c18.028,0,35.515-5.939,49.776-16.818
	c14.482,11.058,32.006,16.835,49.775,16.835c9.753,0,19.58-1.741,29.018-5.305C461.23,305.034,462.794,301.572,461.624,298.472z
	 M275.858,282.408c-12.731,11.018-29.016,17.085-45.852,17.085c-16.837,0-33.12-6.067-45.851-17.085
	c-2.256-1.951-5.599-1.951-7.853,0c-12.731,11.018-29.016,17.085-45.852,17.085c-6.248,0-12.418-0.839-18.36-2.453
	c25.077-8.394,85.112-28.467,120.798-40.228c8.53-2.812,14.972-9.337,17.673-17.902c2.702-8.567,1.169-17.608-4.206-24.806
	l-12.109-16.217c-1.347-1.805-3.597-2.702-5.81-2.326l-59.238,10.036c-4.386,0.742-8.778-0.288-12.375-2.903
	c-3.595-2.615-5.93-6.479-6.574-10.877c-1.293-8.835,4.829-17.158,13.648-18.556l65.428-10.368
	c11.516-1.821,22.983,2.867,29.919,12.243l33.934,45.88c-5.734,9.488-9.039,20.6-9.039,32.471c0,13.91,4.64,27.164,12.724,37.901
	c-4.68-2.469-9.098-5.471-13.154-8.98C281.456,280.457,278.112,280.457,275.858,282.408z M375.413,282.408
	c-12.732,11.018-29.016,17.085-45.852,17.085c-1.601,0-3.194-0.072-4.783-0.181c-17.432-8.514-28.639-26.377-28.639-45.825
	c0-28.105,22.865-50.971,50.97-50.971c28.1,0,50.96,22.865,50.96,50.971c0,11.592-3.789,22.516-10.956,31.587
	c-0.071,0.09-0.15,0.176-0.222,0.266c-1.235-0.933-2.445-1.909-3.626-2.932C381.009,280.457,377.667,280.457,375.413,282.408z"/>
<g>
</g>
<g>
</g>
<g>
</g>
<g>
</g>
<g>
</g>
<g>
</g>
<g>
</g>
<g>
</g>
<g>
</g>
<g>
</g>
<g>
</g>
<g>
</g>
<g>
</g>
<g>
</g>
<g>
</g>
</svg>
