<?xml version="1.0" encoding="iso-8859-1"?>
<!-- Generator: Adobe Illustrator 18.0.0, SVG Export Plug-In . SVG Version: 6.00 Build 0)  -->
<!DOCTYPE svg PUBLIC "-//W3C//DTD SVG 1.1//EN" "http://www.w3.org/Graphics/SVG/1.1/DTD/svg11.dtd">
<svg version="1.1" id="Capa_1" xmlns="http://www.w3.org/2000/svg" xmlns:xlink="http://www.w3.org/1999/xlink" x="0px" y="0px"
	 viewBox="0 0 447.011 447.011" style="enable-background:new 0 0 447.011 447.011;" xml:space="preserve">
<g>
	<path d="M301.502,94.683V40.039c0-2.951-2.146-5.464-5.061-5.926c-2.432-0.385-4.869-0.733-7.309-1.056v-5.341h2.32
		c3.313,0,6-2.687,6-6V6c0-3.313-2.687-6-6-6h-53.619c-3.313,0-6,2.687-6,6v0.043h-13.78c-14.831,0-26.896,12.066-26.896,26.896
		v3.719c-11.059,2.292-21.988,5.217-32.712,8.783c-7.739,2.574-12.938,9.783-12.938,17.938v31.304
		c-11.461,3.625-19.793,14.357-19.793,27.001v6.467c0,6.3,5.125,11.425,11.425,11.425h3.562l19.5,291.154
		c0.155,2.329,1.647,4.356,3.825,5.196c19.048,7.354,39.06,11.084,59.479,11.084c20.42,0,40.432-3.729,59.479-11.084
		c2.178-0.84,3.67-2.868,3.825-5.196l19.5-291.154h3.563c6.3,0,11.425-5.125,11.425-11.425v-6.467
		C321.296,109.04,312.964,98.308,301.502,94.683z M277.133,31.725c-8.306-0.749-16.641-1.144-24.979-1.181v-2.828h24.979V31.725z
		 M243.834,12h41.619v3.716h-41.619V12z M203.158,32.94c0-8.214,6.683-14.896,14.896-14.896h13.78v3.673c0,3.313,2.687,6,6,6h2.32
		v3.017c-12.394,0.451-24.758,1.691-36.997,3.7V32.94z M162.234,56.829c40.8-13.567,84.689-17.56,127.269-11.618v48.16H157.507
		V63.38C157.507,60.401,159.407,57.769,162.234,56.829z M275.095,426.059c-16.589,5.942-33.925,8.952-51.591,8.952
		c-17.665,0-35.001-3.01-51.59-8.952l-19.188-286.483h141.556L275.095,426.059z M309.296,127.576H137.714v-5.892
		c0-8.995,7.318-16.313,16.313-16.313h138.955c8.995,0,16.313,7.318,16.313,16.313V127.576z"/>
	<path d="M279.435,90.58c3.313,0,6-2.687,6-6V52.224c0-3.313-2.687-6-6-6s-6,2.687-6,6V84.58
		C273.435,87.893,276.122,90.58,279.435,90.58z"/>
	<path d="M194.505,161.043h31c3.313,0,6-2.687,6-6s-2.687-6-6-6h-31c-3.313,0-6,2.687-6,6S191.192,161.043,194.505,161.043z"/>
	<path d="M194.505,193.293h15c3.313,0,6-2.687,6-6s-2.687-6-6-6h-15c-3.313,0-6,2.687-6,6S191.192,193.293,194.505,193.293z"/>
	<path d="M194.505,225.543h15c3.313,0,6-2.687,6-6s-2.687-6-6-6h-15c-3.313,0-6,2.687-6,6S191.192,225.543,194.505,225.543z"/>
	<path d="M194.505,257.793h15c3.313,0,6-2.687,6-6s-2.687-6-6-6h-15c-3.313,0-6,2.687-6,6S191.192,257.793,194.505,257.793z"/>
	<path d="M194.505,290.043h31c3.313,0,6-2.687,6-6s-2.687-6-6-6h-31c-3.313,0-6,2.687-6,6S191.192,290.043,194.505,290.043z"/>
	<path d="M194.505,322.293h15c3.313,0,6-2.687,6-6s-2.687-6-6-6h-15c-3.313,0-6,2.687-6,6S191.192,322.293,194.505,322.293z"/>
	<path d="M194.505,354.543h15c3.313,0,6-2.687,6-6s-2.687-6-6-6h-15c-3.313,0-6,2.687-6,6S191.192,354.543,194.505,354.543z"/>
	<path d="M194.505,386.793h15c3.313,0,6-2.687,6-6s-2.687-6-6-6h-15c-3.313,0-6,2.687-6,6S191.192,386.793,194.505,386.793z"/>
	<path d="M194.505,419.043h31c3.313,0,6-2.687,6-6s-2.687-6-6-6h-31c-3.313,0-6,2.687-6,6S191.192,419.043,194.505,419.043z"/>
</g>
<g>
</g>
<g>
</g>
<g>
</g>
<g>
</g>
<g>
</g>
<g>
</g>
<g>
</g>
<g>
</g>
<g>
</g>
<g>
</g>
<g>
</g>
<g>
</g>
<g>
</g>
<g>
</g>
<g>
</g>
</svg>
