<?xml version="1.0" encoding="iso-8859-1"?>
<!-- Generator: Adobe Illustrator 18.0.0, SVG Export Plug-In . SVG Version: 6.00 Build 0)  -->
<!DOCTYPE svg PUBLIC "-//W3C//DTD SVG 1.1//EN" "http://www.w3.org/Graphics/SVG/1.1/DTD/svg11.dtd">
<svg version="1.1" id="Capa_1" xmlns="http://www.w3.org/2000/svg" xmlns:xlink="http://www.w3.org/1999/xlink" x="0px" y="0px"
	 viewBox="0 0 471.655 471.655" style="enable-background:new 0 0 471.655 471.655;" xml:space="preserve">
<path d="M377.08,278.189c-8.973,0-17.657,1.256-25.888,3.602l-20.299-57.254l7.324,5.164c4.494,3.17,9.77,4.845,15.254,4.845
	c8.615,0,16.719-4.198,21.678-11.232c2.089-2.963,3.482-6.211,4.216-9.549h3.71c11.855,0,21.5-9.645,21.5-21.5
	s-9.645-21.5-21.5-21.5h-2.5c-3.313,0-6,2.687-6,6s2.687,6,6,6h2.5c5.238,0,9.5,4.262,9.5,9.5s-4.262,9.5-9.5,9.5h-3.857
	c-1.463-6.013-5.013-11.545-10.457-15.383l-79.649-56.16c34.115-0.703,61.657-28.655,61.657-62.936
	c0-34.721-28.248-62.969-62.969-62.969c-34.722,0-62.97,28.248-62.97,62.969c0,14.711,5.085,28.249,13.571,38.98
	c-0.595-0.018-1.19-0.034-1.786-0.034c-18.994,0-36.859,9.256-47.791,24.76l-31.173,44.211
	c-8.156,11.567-11.319,25.617-8.907,39.563c0.998,5.769,2.913,11.227,5.62,16.23c-13.85-0.34-26.806,8.561-30.966,22.457
	c-0.495,1.653-0.254,3.439,0.661,4.902s2.415,2.461,4.118,2.739l19.646,3.215l-12.749,23.004c-12.283-5.845-26.015-9.123-40.5-9.123
	C42.427,278.189,0,320.616,0,372.764s42.427,94.575,94.575,94.575c47.167,0,86.378-34.71,93.439-79.927
	c4.277,6.621,11.716,11.016,20.168,11.016c13.233,0,24-10.766,24-23.999c0-6.056-2.26-11.591-5.974-15.818
	c4.015,1.997,8.426,3.038,12.966,3.038c9.508,0,18.452-4.634,23.925-12.396l11.238-15.939c6.088-8.634,9.901-18.196,11.581-27.974
	l45.682-42.896l8.286,23.372c-33.711,14.475-57.382,47.998-57.382,86.949c0,52.148,42.427,94.575,94.575,94.575
	s94.575-42.427,94.575-94.575S429.229,278.189,377.08,278.189z M287.801,16.316c28.104,0,50.969,22.864,50.969,50.969
	s-22.864,50.97-50.969,50.97s-50.97-22.865-50.97-50.97S259.696,16.316,287.801,16.316z M159.168,243.797
	c0,0,8.329,3.173,11.212,5.21c0.014,0.01,0.027,0.019,0.041,0.029l12.581,8.87l-44.86-7.342
	C142.936,244.369,151.227,241.424,159.168,243.797z M217.977,352.528c-2.642-1.186-5.532-1.914-8.573-2.067l-18.777-79.148
	l14.832,2.427l11.504,8.112c3.94,2.778,6.563,6.925,7.384,11.675c0.822,4.75-0.256,9.536-3.033,13.477l-6.021,8.539
	C207.13,327.118,208.577,342.626,217.977,352.528z M94.575,455.339C49.043,455.339,12,418.296,12,372.764
	s37.043-82.575,82.575-82.575c12.376,0,24.115,2.755,34.663,7.655l-29.463,53.16c-1.676-0.372-3.414-0.574-5.2-0.574
	c-13.233,0-23.999,10.766-23.999,23.999s10.766,23.999,23.999,23.999c11.753,0,21.552-8.494,23.599-19.664h58.734
	C173.822,421.503,138.088,455.339,94.575,455.339z M117.312,366.764c-1.356-4.01-3.741-7.548-6.844-10.297l29.257-52.79
	c20.94,13.731,35.279,36.707,37.184,63.087H117.312z M89.405,375.81c1.079,1.83,3.045,2.954,5.17,2.954h11.176
	c-1.743,4.477-6.09,7.664-11.176,7.664c-6.616,0-11.999-5.383-11.999-11.999c0-6.223,4.763-11.352,10.834-11.94l-4.083,7.367
	C88.297,371.714,88.327,373.979,89.405,375.81z M188.403,360.858c-3.583-28.398-19.807-52.914-42.84-67.716l14.84-26.776
	l17.393,2.847l19.847,83.661C193.92,354.702,190.738,357.466,188.403,360.858z M208.183,386.428
	c-6.616,0-11.999-5.383-11.999-11.999s5.383-11.999,11.999-11.999c6.617,0,12,5.383,12,11.999S214.8,386.428,208.183,386.428z
	 M264.531,326.399l-11.238,15.938c-3.229,4.578-8.506,7.312-14.118,7.312c-3.563,0-6.993-1.091-9.918-3.153
	c-7.773-5.481-9.639-16.265-4.158-24.038l6.021-8.54c4.625-6.56,6.419-14.527,5.052-22.436c-1.368-7.909-5.734-14.813-12.294-19.437
	l-46.542-32.816c-8.946-6.309-14.901-15.723-16.767-26.51c-1.866-10.787,0.58-21.655,6.889-30.603l31.173-44.212
	c8.687-12.319,22.887-19.674,37.984-19.674c9.596,0,18.83,2.934,26.704,8.485l98.527,69.472c2.094,1.477,3.672,3.414,4.706,5.576
	h-11.978c-3.313,0-6,2.687-6,6s2.687,6,6,6h12.238c-0.391,0.91-0.877,1.793-1.47,2.634c-2.715,3.85-7.152,6.147-11.871,6.147
	c-2.995,0-5.879-0.917-8.34-2.651l-82.131-57.91c-2.706-1.909-6.452-1.264-8.361,1.445c-1.91,2.708-1.263,6.452,1.445,8.361
	l1.65,1.163l-23.344,47.775l-8.556-6.033c-2.71-1.909-6.452-1.264-8.361,1.445c-1.91,2.709-1.263,6.452,1.445,8.361l31.875,22.475
	c12.441,8.772,20.723,21.865,23.317,36.866S273.304,313.958,264.531,326.399z M286.698,288.146
	c-0.841-10.576-4.111-20.913-9.632-30.126l41.915-0.187L286.698,288.146z M267.992,246.06c-3.073-3.236-6.5-6.222-10.283-8.89
	l-13.385-9.438l23.344-47.775l46.25,32.61l11.783,33.235L267.992,246.06z M377.08,455.339c-45.532,0-82.575-37.043-82.575-82.575
	c0-33.738,20.347-62.797,49.407-75.597l27.513,77.602c0.872,2.461,3.186,3.997,5.655,3.997c0.665,0,1.342-0.112,2.005-0.347
	c3.123-1.107,4.758-4.537,3.65-7.66l-27.516-77.611c6.968-1.916,14.293-2.959,21.861-2.959c45.532,0,82.575,37.043,82.575,82.575
	S422.612,455.339,377.08,455.339z"/>
<g>
</g>
<g>
</g>
<g>
</g>
<g>
</g>
<g>
</g>
<g>
</g>
<g>
</g>
<g>
</g>
<g>
</g>
<g>
</g>
<g>
</g>
<g>
</g>
<g>
</g>
<g>
</g>
<g>
</g>
</svg>
