<?xml version="1.0" encoding="iso-8859-1"?>
<!-- Generator: Adobe Illustrator 18.0.0, SVG Export Plug-In . SVG Version: 6.00 Build 0)  -->
<!DOCTYPE svg PUBLIC "-//W3C//DTD SVG 1.1//EN" "http://www.w3.org/Graphics/SVG/1.1/DTD/svg11.dtd">
<svg version="1.1" id="Capa_1" xmlns="http://www.w3.org/2000/svg" xmlns:xlink="http://www.w3.org/1999/xlink" x="0px" y="0px"
	 viewBox="0 0 436.2 436.2" style="enable-background:new 0 0 436.2 436.2;" xml:space="preserve">
<path d="M369.425,378.63h-86.307l-0.193-67.71c-0.017-5.326,1.014-10.531,3.061-15.466l49.827-119.823
	c21.644-6.713,36.503-26.684,36.503-49.631c0-26.643-20.145-48.657-46-51.643V6c0-3.313-2.687-6-6-6s-6,2.687-6,6v68.357
	c-25.855,2.986-46,25-46,51.643c0,9.465,2.535,18.604,7.351,26.647l-18.073,38.006c-10.781-8.638-24.443-13.823-39.3-13.823
	c-14.985,0-28.758,5.27-39.581,14.043L160.7,153.003c4.956-8.125,7.566-17.387,7.566-27.003c0-26.643-20.145-48.657-46-51.643V6
	c0-3.313-2.687-6-6-6s-6,2.687-6,6v68.357c-25.855,2.986-46,25-46,51.643c0,22.729,14.684,42.649,36.07,49.505l49.91,120.039
	c2.028,4.879,3.062,10.028,3.07,15.303l0.082,67.783H66.775c-15.875,0-28.79,12.911-28.79,28.78c0,7.684,2.991,14.914,8.433,20.368
	c5.443,5.431,12.674,8.422,20.357,8.422h302.649c15.875,0,28.79-12.915,28.79-28.79C398.215,391.541,385.3,378.63,369.425,378.63z
	 M320.315,86c22.056,0,40,17.944,40,40c0,15.214-8.49,28.725-21.489,35.473c-0.167-11.368-6.403-22.067-17.019-27.733
	c-4.648-2.467-9.856-3.771-15.063-3.771c-9.126,0-17.727,3.945-23.727,10.498c-1.778-4.576-2.703-9.462-2.703-14.468
	C280.315,103.944,298.26,86,320.315,86z M269.262,239.799c0,28.104-22.864,50.97-50.969,50.97s-50.97-22.865-50.97-50.97
	s22.865-50.969,50.97-50.969S269.262,211.694,269.262,239.799z M76.266,126c0-22.056,17.944-40,40-40s40,17.944,40,40
	c0,5.116-0.962,10.1-2.813,14.754c-6.011-6.73-14.737-10.784-23.998-10.784c-5.206,0-10.414,1.304-15.077,3.778
	c-10.533,5.628-16.762,16.248-17,27.531C84.601,154.45,76.266,141.024,76.266,126z M369.425,424.2H66.775
	c-4.484,0-8.704-1.746-11.872-4.907c-3.172-3.179-4.918-7.399-4.918-11.883c0-9.253,7.532-16.78,16.79-16.78h116.714
	c3.313,0,6-2.687,6-6s-2.687-6-6-6h-18.091l-0.083-67.8c-0.011-6.859-1.354-13.553-3.99-19.894c0,0-50.684-121.928-50.82-122.33
	c-3.249-9.38,0.758-19.589,9.513-24.267c2.964-1.572,6.14-2.37,9.438-2.37c7.724,0,14.852,4.497,18.156,11.446l22.069,46.404
	c-8.965,10.882-14.357,24.812-14.357,39.979c0,34.722,28.248,62.97,62.97,62.97c34.721,0,62.969-28.248,62.969-62.97
	c0-15.303-5.492-29.344-14.603-40.268l21.924-46.104c3.311-6.96,10.439-11.457,18.162-11.457c3.298,0,6.474,0.798,9.425,2.363
	c8.805,4.699,12.802,14.941,9.522,24.296c-0.139,0.385-50.789,122.223-50.789,122.223c-2.662,6.416-4.001,13.181-3.979,20.105
	l0.194,67.673h-18.058c-3.313,0-6,2.687-6,6s2.687,6,6,6h116.364c9.258,0,16.79,7.527,16.79,16.78
	C386.215,416.668,378.683,424.2,369.425,424.2z"/>
<g>
</g>
<g>
</g>
<g>
</g>
<g>
</g>
<g>
</g>
<g>
</g>
<g>
</g>
<g>
</g>
<g>
</g>
<g>
</g>
<g>
</g>
<g>
</g>
<g>
</g>
<g>
</g>
<g>
</g>
</svg>
