<?xml version="1.0" encoding="iso-8859-1"?>
<!-- Generator: Adobe Illustrator 18.0.0, SVG Export Plug-In . SVG Version: 6.00 Build 0)  -->
<!DOCTYPE svg PUBLIC "-//W3C//DTD SVG 1.1//EN" "http://www.w3.org/Graphics/SVG/1.1/DTD/svg11.dtd">
<svg version="1.1" id="Capa_1" xmlns="http://www.w3.org/2000/svg" xmlns:xlink="http://www.w3.org/1999/xlink" x="0px" y="0px"
	 viewBox="0 0 469.258 469.258" style="enable-background:new 0 0 469.258 469.258;" xml:space="preserve">
<path d="M440.258,384.03h-1.331l-15.675-31.819c1.428-1.196,2.731-2.563,3.875-4.092c3.87-5.176,5.492-11.549,4.569-17.946
	c-1.706-11.824-11.992-20.742-23.926-20.742c-1.157,0-4.145,0.359-4.474,0.42l-6.548-13.966c6.313-5.203,9.847-13.481,8.595-22.151
	c-1.707-11.824-11.992-20.741-23.924-20.741c-1.158,0-2.329,0.085-3.481,0.251c-6.396,0.923-12.051,4.282-15.921,9.459
	c-0.011,0.015-0.02,0.034-0.031,0.049l-1.14-2.482c-11.401-24.836-36.085-41.307-63.413-41.223
	c-9.884,0.03-19.483,2.152-28.534,6.306l-14.076,6.462L239.806,199.1l69.96-32.118c13.28-6.096,19.124-21.859,13.027-35.141
	c-1.183-2.576-2.741-4.904-4.641-6.952c-0.421-3.711-1.631-7.415-3.751-10.876c-4.863-7.938-13.698-12.763-23.006-12.618
	c-3.682,0.057-7.255,0.871-10.627,2.419l-64.811,29.754c5.117-15.067,4.452-31.802-2.345-46.605
	c-7.019-15.289-19.568-26.929-35.337-32.774c-16.76-6.215-35.027-5.093-51.019,3.215c-12.819,6.66-23.011,17.638-28.702,30.915
	c-7.109,16.585-6.857,34.912,0.613,51.183c8.935,19.463,26.824,32.722,47.419,35.943c-10.485,16.231-12.741,37.312-4.099,56.135
	l22.569,49.162c6.418,13.981,18.554,24.272,32.866,28.612L7.015,396.189c-5.173,2.351-7.943,7.873-6.734,13.428
	c1.217,5.59,6.408,9.426,12.13,9.414c27.335-0.062,53.818-5.833,78.722-17.159l223.655-101.723l0.297,0.648
	c4.778,10.407,15.005,17.49,26.455,17.65c4.372,0.061,8.616-0.838,12.605-2.67c7.101-3.26,12.506-9.089,15.222-16.414
	c0.125-0.337,0.237-0.677,0.349-1.017c3.484,1.939,7.468,3.038,11.658,3.044c2.195,0.003,4.164-0.361,4.503-0.425l6.541,13.952
	c-6.328,5.201-9.873,13.489-8.619,22.17c1.707,11.824,11.992,20.741,23.924,20.741c1.158,0,2.329-0.085,3.481-0.251
	c0.407-0.059,0.81-0.128,1.211-0.206l13.195,26.784c-14.754,1.342-26.353,13.777-26.353,28.874v0c0,3.314,2.686,6,6,6h58
	c3.314,0,6-2.686,6-6v0C469.258,397.014,456.274,384.03,440.258,384.03z M304.761,156.075l-69.961,32.118l-1.878-4.09l69.961-32.117
	c4.249-1.951,7.732-4.894,10.311-8.426c-0.07,1.477-0.36,2.951-0.888,4.377C310.959,151.57,308.279,154.46,304.761,156.075z
	 M110.072,134.495c-5.681-12.376-6.205-26.221-1.474-38.984c4.73-12.763,14.149-22.919,26.521-28.599
	c12.375-5.683,26.222-6.204,38.984-1.474c12.764,4.732,22.922,14.153,28.604,26.529c7.354,16.02,5.823,34.825-3.895,49.471
	l-27.607,12.674c-5.705,2.619-10.777,6.056-15.163,10.095C136.262,164.084,118.383,152.597,110.072,134.495z M86.164,390.948
	c-23.408,10.645-48.304,16.055-74.002,16.082l212.479-96.646c3.646-0.809,7.213-2.007,10.674-3.596l51.755-23.759
	c2.387-1.097,4.916-1.652,7.516-1.652c6.046,0,11.647,3.055,14.968,7.968L86.164,390.948z M358.116,295.19
	c-1.602,4.32-4.79,7.758-8.978,9.68c-2.281,1.048-4.697,1.579-7.182,1.579c-6.727,0-12.885-3.947-15.689-10.059l-4.36-9.496
	c-4.886-10.642-15.61-17.518-27.322-17.518c-4.341,0-8.554,0.924-12.522,2.746l-51.755,23.759
	c-5.418,2.487-11.162,3.749-17.071,3.749c-15.979,0.001-30.61-9.379-37.275-23.896l-22.57-49.162
	c-10.679-23.263-0.442-50.876,22.82-61.555l109.563-50.299c1.919-0.881,3.951-1.328,6.039-1.328c5.656,0,10.834,3.319,13.192,8.457
	c3.337,7.268,0.139,15.896-7.129,19.231l-91.331,41.928c-3.011,1.383-4.332,4.945-2.949,7.956c1.01,2.201,3.184,3.498,5.457,3.498
	c0.837,0,1.688-0.176,2.5-0.548l10.463-4.803l21.902,47.709l-10.463,4.803c-3.011,1.383-4.332,4.945-2.949,7.956
	c1.01,2.201,3.184,3.498,5.457,3.498c0.837,0,1.688-0.176,2.499-0.548l35.444-16.271c7.535-3.459,15.522-5.213,23.741-5.213
	c22.221,0,42.567,13.043,51.834,33.23l8.137,17.725C359.541,286.186,359.718,290.871,358.116,295.19z M381.374,289.39
	c-3.85,0-7.354-1.85-9.603-4.745c-0.524-0.675-1.973-3.127-2.447-5.714c-0.465-3.223,0.354-6.434,2.304-9.043
	c1.951-2.609,4.801-4.303,8.025-4.768c0.586-0.085,1.181-0.128,1.767-0.128c6.008,0,11.187,4.495,12.047,10.456
	c0.961,6.656-3.672,12.854-10.328,13.814C382.553,289.348,381.959,289.39,381.374,289.39z M407.724,345.829
	c-6.008,0-11.187-4.495-12.047-10.456c-0.961-6.656,3.672-12.854,10.328-13.814c0.586-0.085,1.18-0.128,1.766-0.128
	c6.009,0,11.188,4.496,12.049,10.457c0.466,3.225-0.353,6.437-2.304,9.046c-1.95,2.609-4.801,4.302-8.025,4.768
	C408.904,345.786,408.31,345.829,407.724,345.829z M412.351,407.03c2.431-6.422,8.645-11,15.907-11h12
	c7.263,0,13.477,4.578,15.907,11H412.351z"/>
<g>
</g>
<g>
</g>
<g>
</g>
<g>
</g>
<g>
</g>
<g>
</g>
<g>
</g>
<g>
</g>
<g>
</g>
<g>
</g>
<g>
</g>
<g>
</g>
<g>
</g>
<g>
</g>
<g>
</g>
</svg>
