<?xml version="1.0" encoding="iso-8859-1"?>
<!-- Generator: Adobe Illustrator 18.0.0, SVG Export Plug-In . SVG Version: 6.00 Build 0)  -->
<!DOCTYPE svg PUBLIC "-//W3C//DTD SVG 1.1//EN" "http://www.w3.org/Graphics/SVG/1.1/DTD/svg11.dtd">
<svg version="1.1" id="Capa_1" xmlns="http://www.w3.org/2000/svg" xmlns:xlink="http://www.w3.org/1999/xlink" x="0px" y="0px"
	 viewBox="0 0 465.441 465.441" style="enable-background:new 0 0 465.441 465.441;" xml:space="preserve">
<path d="M453.131,294.229c-7.938-7.939-18.493-12.312-29.72-12.312H49.087c-13.417,0-24.523-10.603-24.76-23.636
	c-0.119-6.606,2.386-12.811,7.058-17.474c4.547-4.546,10.593-7.05,17.024-7.05H409.75c21.765,0,39.804-17.396,40.213-38.78
	c0.208-10.867-3.902-21.076-11.577-28.751c-7.479-7.465-17.412-11.577-27.969-11.577H73.999c-13.044,0-23.812-10.287-24.003-22.933
	c-0.097-6.375,2.323-12.355,6.82-16.842c4.398-4.399,10.25-6.822,16.476-6.822h225.346v16.146c0,3.313,2.687,6,6,6s6-2.687,6-6
	v-3.629h92.93c10.423,0,18.903-8.48,18.903-18.903s-8.48-18.903-18.903-18.903h-92.93v-3.629c0-3.313-2.687-6-6-6s-6,2.687-6,6
	v16.92H73.292c-9.432,0-18.296,3.671-24.957,10.333c-6.813,6.798-10.484,15.859-10.337,25.514c0.29,19.162,16.44,34.75,36.001,34.75
	h336.418c7.355,0,14.278,2.866,19.487,8.066c5.343,5.343,8.206,12.458,8.061,20.033c-0.285,14.893-12.941,27.009-28.215,27.009
	H48.409c-9.637,0-18.695,3.752-25.505,10.561c-6.999,6.985-10.754,16.282-10.575,26.18c0.354,19.53,16.843,35.419,36.758,35.419
	h374.324c8.021,0,15.563,3.124,21.234,8.797c5.852,5.851,8.973,13.636,8.788,21.922c-0.36,16.178-14.151,29.34-30.741,29.34H145.787
	v-20.721c0-3.313-2.687-6-6-6s-6,2.687-6,6v7.623H18.903C8.48,340.878,0,349.358,0,359.782s8.48,18.903,18.903,18.903h114.884v7.623
	c0,3.313,2.687,6,6,6s6-2.687,6-6v-20.331h276.905c23.062,0,42.233-18.425,42.737-41.073
	C465.689,313.312,461.32,302.418,453.131,294.229z M403.567,94.763c3.807,0,6.903,3.097,6.903,6.903s-3.097,6.903-6.903,6.903
	h-92.93V94.763H403.567z M18.903,366.685c-3.807,0-6.903-3.097-6.903-6.903s3.097-6.903,6.903-6.903h114.884v13.807H18.903z"/>
<g>
</g>
<g>
</g>
<g>
</g>
<g>
</g>
<g>
</g>
<g>
</g>
<g>
</g>
<g>
</g>
<g>
</g>
<g>
</g>
<g>
</g>
<g>
</g>
<g>
</g>
<g>
</g>
<g>
</g>
</svg>
