<?xml version="1.0" encoding="iso-8859-1"?>
<!-- Generator: Adobe Illustrator 18.0.0, SVG Export Plug-In . SVG Version: 6.00 Build 0)  -->
<!DOCTYPE svg PUBLIC "-//W3C//DTD SVG 1.1//EN" "http://www.w3.org/Graphics/SVG/1.1/DTD/svg11.dtd">
<svg version="1.1" id="Capa_1" xmlns="http://www.w3.org/2000/svg" xmlns:xlink="http://www.w3.org/1999/xlink" x="0px" y="0px"
	 viewBox="0 0 405.967 405.967" style="enable-background:new 0 0 405.967 405.967;" xml:space="preserve">
<path d="M353.956,209.865c-30.489-4.382-70.971-6.795-113.988-6.795c-2.742,0-5.468,0.011-8.163,0.03
	c0.655-8.048,7.401-14.4,15.616-14.4h58.22c15.263,0,27.68-12.417,27.68-27.68s-12.417-27.681-27.68-27.681H203.777
	c15.776-11.454,26.062-30.03,26.062-50.973c0-34.722-28.248-62.97-62.969-62.97c-34.722,0-62.97,28.248-62.97,62.97
	c0,20.943,10.286,39.518,26.063,50.973H27.68C12.417,133.34,0,145.758,0,161.02s12.417,27.68,27.68,27.68H85.9
	c8.646,0,15.68,7.034,15.68,15.68v9.966c-19.284,4.564-27.613,9.962-27.613,17.725c0,7.759,8.332,13.161,27.613,17.726V358.98
	c0,15.213,12.565,27.59,28.01,27.59c7.368,0,14.297-2.872,19.513-8.088c5.208-5.209,8.077-12.135,8.077-19.502v-69.317
	c0-5.562,4.315-10.116,9.69-10.152c2.595,0,5.03,1.006,6.849,2.823c1.832,1.839,2.84,4.277,2.84,6.866v69.295
	c0,15.292,12.219,27.886,27.239,28.073l0.352,0.002c7.366,0,14.296-2.872,19.513-8.088c5.208-5.209,8.076-12.135,8.076-19.502
	v-97.943c2.74,0.02,5.488,0.033,8.228,0.033c43.01,0,83.492-2.414,113.988-6.799c45.832-6.588,52.012-14.92,52.012-22.201
	C405.967,224.786,399.788,216.452,353.956,209.865z M115.901,82.367c0-28.104,22.865-50.97,50.97-50.97
	c28.104,0,50.969,22.865,50.969,50.97s-22.864,50.969-50.969,50.969C138.766,133.336,115.901,110.471,115.901,82.367z M85.9,176.7
	H27.68c-8.646,0-15.68-7.034-15.68-15.68c0-8.646,7.034-15.681,15.68-15.681h277.96c8.646,0,15.68,7.034,15.68,15.681
	c0,8.646-7.034,15.68-15.68,15.68h-58.22c-15.264,0-27.681,12.417-27.681,27.68v44.506c-42.351-0.772-80.422-3.935-106.16-8.815
	v-35.69C113.58,189.117,101.163,176.7,85.9,176.7z M87.051,232.07c1.796-1.159,5.83-3.119,14.529-5.362v10.725
	C92.884,235.189,88.847,233.229,87.051,232.07z M215.178,369.997c-2.949,2.949-6.866,4.573-11.027,4.573l-0.202-0.002
	c-8.485-0.105-15.389-7.316-15.389-16.073V289.2c0-5.786-2.251-11.231-6.348-15.344c-4.093-4.093-9.542-6.346-15.341-6.346h-0.152
	c-11.876,0.081-21.538,10.019-21.538,22.152v69.317c0,4.162-1.621,8.075-4.563,11.018c-2.949,2.948-6.865,4.572-11.027,4.572
	c-8.678,0-16.01-7.14-16.01-15.59V252.273c26.383,4.774,64.289,7.858,106.16,8.613v98.094
	C219.74,363.142,218.12,367.055,215.178,369.997z M346.765,243.145c-29.243,3.82-67.171,5.925-106.798,5.925
	c-2.74,0-5.487-0.013-8.228-0.033v-33.936c2.715-0.02,5.463-0.031,8.228-0.031c39.635,0,77.564,2.104,106.801,5.922
	c31.967,4.175,42.699,8.957,46.059,11.076C389.466,234.187,378.732,238.969,346.765,243.145z"/>
<g>
</g>
<g>
</g>
<g>
</g>
<g>
</g>
<g>
</g>
<g>
</g>
<g>
</g>
<g>
</g>
<g>
</g>
<g>
</g>
<g>
</g>
<g>
</g>
<g>
</g>
<g>
</g>
<g>
</g>
</svg>
