<?xml version="1.0" encoding="iso-8859-1"?>
<!-- Generator: Adobe Illustrator 18.0.0, SVG Export Plug-In . SVG Version: 6.00 Build 0)  -->
<!DOCTYPE svg PUBLIC "-//W3C//DTD SVG 1.1//EN" "http://www.w3.org/Graphics/SVG/1.1/DTD/svg11.dtd">
<svg version="1.1" id="Capa_1" xmlns="http://www.w3.org/2000/svg" xmlns:xlink="http://www.w3.org/1999/xlink" x="0px" y="0px"
	 viewBox="0 0 432.72 432.72" style="enable-background:new 0 0 432.72 432.72;" xml:space="preserve">
<path d="M362.425,72.14c-38.768,0-70.307,31.539-70.307,70.307c0,4.495,0.426,8.924,1.255,13.263
	c-6.988-2.524-14.434-3.848-22.085-3.86l-61.16-0.101c-17.323,0-32.934,7.515-43.746,19.453H32.244c-8.613,0-16.71,3.354-22.8,9.445
	C3.354,186.736,0,194.833,0,203.445c0,17.786,14.465,32.256,32.244,32.256h118.809l-0.064,39.266
	c-0.019,11.641-9.505,21.11-21.18,21.111l-11.892-0.021c-17.755,0-32.2,14.445-32.2,32.2c0,17.774,14.459,32.258,32.233,32.286
	l22.099,0.036c42.445,0,77.034-34.533,77.104-76.979l0.03-18.256h60.801l-0.12,59.73c-0.02,9.479,3.657,18.393,10.353,25.102
	s15.602,10.403,25.08,10.403h28.729c9.343,0,16.943-7.601,16.943-16.943c0-13.827-9.791-25.411-22.804-28.183l0.188-98.328
	c0.005-3.261-0.228-6.486-0.69-9.655c8.43,3.468,17.489,5.27,26.762,5.27c38.761,0,70.295-31.534,70.295-70.295
	C432.72,103.679,401.186,72.14,362.425,72.14z M32.244,223.701c-11.163,0-20.244-9.087-20.244-20.256
	c0-5.406,2.106-10.49,5.93-14.314c3.824-3.823,8.907-5.93,14.314-5.93h125.719c-4.362,8.212-6.852,17.563-6.869,27.484
	l-0.021,13.016H32.244z M346.969,343.637c0,2.726-2.218,4.943-4.943,4.943h-28.729c-6.269,0-12.158-2.443-16.586-6.88
	c-4.428-4.438-6.859-10.332-6.847-16.601l0.164-85.403c0.006-3.313-2.677-6.004-5.99-6.01c-0.004,0-0.007,0-0.01,0
	c-3.31,0-5.994,2.68-6,5.99l-0.022,13.668h-60.803l0.022-13.768c0.005-3.313-2.676-6.004-5.99-6.01c-0.003,0-0.006,0-0.01,0
	c-3.309,0-5.995,2.68-6,5.99l-0.032,19.768l-0.04,24.256c-0.059,35.841-29.265,64.999-65.104,64.999l-22.08-0.036
	c-11.167-0.018-20.252-9.118-20.252-20.286c0-11.139,9.062-20.2,20.233-20.2l11.894,0.021c18.247-0.001,33.115-14.846,33.145-33.092
	l0.105-64.281c0.043-25.893,21.142-46.957,47.112-46.957l61.062,0.101c14.202,0.023,27.546,5.576,37.572,15.635
	c10.026,10.06,15.535,23.421,15.512,37.621l-0.186,97.719h-6.566c-3.313,0-6,2.687-6,6s2.687,6,6,6h12.555
	C339.427,326.823,346.969,334.366,346.969,343.637z M362.425,200.741c-11.101,0-21.827-3.108-31.145-8.996
	c-3.217-7.647-7.907-14.679-13.94-20.732c-2.916-2.925-6.066-5.528-9.399-7.815c-2.526-6.605-3.823-13.575-3.823-20.751
	c0-32.15,26.156-58.307,58.307-58.307c32.144,0,58.295,26.156,58.295,58.307C420.72,174.59,394.568,200.741,362.425,200.741z"/>
<g>
</g>
<g>
</g>
<g>
</g>
<g>
</g>
<g>
</g>
<g>
</g>
<g>
</g>
<g>
</g>
<g>
</g>
<g>
</g>
<g>
</g>
<g>
</g>
<g>
</g>
<g>
</g>
<g>
</g>
</svg>
