<?xml version="1.0" encoding="iso-8859-1"?>
<!-- Generator: Adobe Illustrator 18.0.0, SVG Export Plug-In . SVG Version: 6.00 Build 0)  -->
<!DOCTYPE svg PUBLIC "-//W3C//DTD SVG 1.1//EN" "http://www.w3.org/Graphics/SVG/1.1/DTD/svg11.dtd">
<svg version="1.1" id="Capa_1" xmlns="http://www.w3.org/2000/svg" xmlns:xlink="http://www.w3.org/1999/xlink" x="0px" y="0px"
	 viewBox="0 0 454 454" style="enable-background:new 0 0 454 454;" xml:space="preserve">
<path d="M380.765,0C370.418,0,362,8.418,362,18.766V50.67h-12.768c-1.952-8.862-7.653-16.786-16.265-21.387
	c-4.648-2.467-9.857-3.771-15.063-3.771c-12.328,0-23.71,7.185-28.999,18.304l-3.259,6.854H172.871l-3.259-6.854
	c-5.288-11.118-16.67-18.303-28.999-18.303c-5.206,0-10.414,1.304-15.077,3.778c-8.604,4.596-14.301,12.518-16.251,21.379H92V18.766
	C92,8.418,83.582,0,73.235,0C62.888,0,54.47,8.418,54.47,18.766V448c0,3.313,2.687,6,6,6s6-2.687,6-6V18.766
	c0-3.73,3.035-6.766,6.765-6.766C76.965,12,80,15.035,80,18.766V448c0,3.313,2.687,6,6,6s6-2.687,6-6V62.67h16.953
	c0.398,2.438,1.082,4.868,2.071,7.247l50.386,121.17c2.027,4.875,3.059,10.024,3.065,15.3l0.106,205.567
	c0,15.213,12.376,27.589,27.589,27.589s27.589-12.376,27.589-27.589v-71.459c0-5.346,4.349-9.694,9.694-9.694
	c5.346,0,9.694,4.349,9.694,9.694v71.459c0,15.213,12.376,27.589,27.588,27.589c15.078,0,27.345-12.376,27.345-27.589V206.466
	c-0.016-5.338,1.016-10.543,3.065-15.471l50.348-121.078c0.989-2.379,1.674-4.809,2.071-7.247H362V448c0,3.313,2.687,6,6,6
	s6-2.687,6-6V18.766c0-3.73,3.035-6.766,6.765-6.766s6.765,3.035,6.765,6.766V448c0,3.313,2.687,6,6,6s6-2.687,6-6V18.766
	C399.53,8.418,391.112,0,380.765,0z M317.905,37.513c3.298,0,6.474,0.798,9.423,2.362c7.639,4.081,11.606,12.347,10.42,20.542
	c-5.807,6.693-15.505,8.752-23.598,4.834c-8.053-3.901-12.452-12.76-10.842-21.44C307.051,39.875,312.318,37.513,317.905,37.513z
	 M279.942,62.67l-11.186,23.527c-10.781-8.639-24.444-13.824-39.302-13.824c-14.987,0-28.761,5.271-39.585,14.046L178.577,62.67
	H279.942z M229.453,84.373c28.104,0,50.969,22.865,50.969,50.97s-22.865,50.969-50.969,50.969s-50.969-22.864-50.969-50.969
	S201.349,84.373,229.453,84.373z M131.176,39.883c2.964-1.572,6.139-2.37,9.438-2.37c5.596,0,10.872,2.37,14.617,6.318
	c1.6,8.674-2.8,17.522-10.847,21.42c-8.101,3.923-17.811,1.854-23.616-4.857C119.591,52.206,123.556,43.953,131.176,39.883z
	 M286.066,186.388c-2.664,6.407-4.005,13.174-3.985,20.096v205.471c0,8.741-6.74,15.589-15.345,15.589
	c-8.595,0-15.588-6.993-15.588-15.589v-71.459c0-11.962-9.732-21.694-21.694-21.694c-11.962,0-21.694,9.732-21.694,21.694v71.459
	c0,8.596-6.993,15.589-15.589,15.589s-15.589-6.993-15.589-15.592l-0.106-205.575c-0.009-6.865-1.35-13.56-3.985-19.896
	L127.425,78.106c2.715,0.733,5.522,1.121,8.35,1.121c4.682,0,9.413-1.031,13.841-3.177c6.717-3.254,11.852-8.66,14.877-15.058
	l16.345,34.376c-8.963,10.881-14.353,24.81-14.353,39.975c0,34.721,28.248,62.969,62.969,62.969s62.969-28.248,62.969-62.969
	c0-15.303-5.492-29.344-14.602-40.268l16.213-34.098c3.023,6.404,8.162,11.816,14.884,15.073c4.429,2.146,9.159,3.177,13.842,3.177
	c2.822,0,5.623-0.386,8.333-1.117L286.066,186.388z"/>
<g>
</g>
<g>
</g>
<g>
</g>
<g>
</g>
<g>
</g>
<g>
</g>
<g>
</g>
<g>
</g>
<g>
</g>
<g>
</g>
<g>
</g>
<g>
</g>
<g>
</g>
<g>
</g>
<g>
</g>
</svg>
