<?xml version="1.0" encoding="iso-8859-1"?>
<!-- Generator: Adobe Illustrator 18.0.0, SVG Export Plug-In . SVG Version: 6.00 Build 0)  -->
<!DOCTYPE svg PUBLIC "-//W3C//DTD SVG 1.1//EN" "http://www.w3.org/Graphics/SVG/1.1/DTD/svg11.dtd">
<svg version="1.1" id="Capa_1" xmlns="http://www.w3.org/2000/svg" xmlns:xlink="http://www.w3.org/1999/xlink" x="0px" y="0px"
	 viewBox="0 0 470.599 470.599" style="enable-background:new 0 0 470.599 470.599;" xml:space="preserve">
<path d="M395.764,0H74.836c-9.347,0-16.951,7.604-16.951,16.951l0.12,409.969c0,3.313,2.687,6,6,6h8.721v31.679c0,3.313,2.687,6,6,6
	h19.499c3.313,0,6-2.687,6-6s-2.687-6-6-6H84.725V432.92h22.503c3.313,0,6-2.687,6-6s-2.687-6-6-6H70.005v-28.254h23.71
	c3.313,0,6-2.687,6-6s-2.687-6-6-6h-23.71v-28.333h37.71c3.313,0,6-2.687,6-6s-2.687-6-6-6h-37.71V312h47.71c3.313,0,6-2.687,6-6
	s-2.687-6-6-6h-47.71v-28.334h79.71c3.313,0,6-2.687,6-6s-2.687-6-6-6h-79.71l-0.12-223.019c2.169,0.864,4.527,1.353,7,1.353
	c10.477,0,19-8.523,19-19c0-2.473-0.489-4.831-1.353-7h123.121c-0.864,2.169-1.353,4.527-1.353,7c0,8.378,5.458,15.494,13,18.014V81
	h-45.365c-0.478,0-0.954,0.057-1.418,0.17l-19.301,4.694c-4.921-2.966-10.628-4.645-16.562-4.645
	c-5.206,0-10.414,1.304-15.077,3.778c-5.237,2.797-9.392,6.83-12.287,11.553l-14.893,3.619c-3.22,0.782-5.195,4.026-4.413,7.247
	c0.667,2.744,3.121,4.584,5.825,4.584c0.469,0,8.936-1.997,8.936-1.997c-0.524,5.153,0.192,10.504,2.319,15.619l50.391,121.169
	c2.021,4.864,3.051,10.015,3.06,15.298v42.41h-19.565c-14.337,0-26,11.663-26,26v27.971c-8.304,1.243-14.7,8.404-14.7,17.048V388
	c0,9.517,7.743,17.26,17.26,17.26h0.274c4.374,8.562,13.335,14.24,23.166,14.24c9.84,0,18.801-5.678,23.169-14.24h2.871
	c9.517,0,17.26-7.743,17.26-17.26v-0.24h21.84v59.139h-21.84v-5.699c0-3.313-2.687-6-6-6h-48.6c-16.212,0-29.4,13.188-29.4,29.399
	c0,3.313,2.687,6,6,6h72c3.313,0,6-2.687,6-6v-5.7h81.68v5.7c0,3.313,2.687,6,6,6h72c0.008,0.001,0.016,0.001,0.02,0
	c3.314,0,6-2.687,6-6c0-0.187-0.008-0.371-0.024-0.553c-0.297-15.956-13.369-28.847-29.395-28.847h-48.601c-3.313,0-6,2.687-6,6
	v5.699h-21.84V387.76h21.84V388c0,9.517,7.743,17.26,17.26,17.26h2.871c4.368,8.562,13.329,14.24,23.17,14.24
	c9.83,0,18.791-5.678,23.165-14.24h0.274c9.517,0,17.26-7.743,17.26-17.26v-12.48c0-8.645-6.396-15.805-14.699-17.048V330.5
	c0-14.337-11.663-26-26-26h-19.104v-42.331c-0.018-5.325,1.012-10.53,3.06-15.466l50.351-121.08
	c2.127-5.115,2.843-10.466,2.318-15.619c0,0,8.467,1.997,8.936,1.997c2.704,0,5.158-1.841,5.825-4.584
	c0.783-3.22-1.193-6.465-4.413-7.247l-14.896-3.62c-2.898-4.725-7.056-8.76-12.299-11.56c-4.648-2.467-9.856-3.771-15.063-3.771
	c-5.934,0-11.64,1.678-16.561,4.645l-19.312-4.695c-0.464-0.113-0.939-0.17-1.417-0.17H241.3V37.014c7.542-2.519,13-9.635,13-18.014
	c0-2.473-0.489-4.831-1.353-7h123.121c-0.864,2.169-1.353,4.527-1.353,7c0,10.477,8.523,19,19,19c2.473,0,4.831-0.489,7-1.353
	v223.019h-79.706c-3.313,0-6,2.687-6,6s2.687,6,6,6h79.706V300h-47.706c-3.313,0-6,2.687-6,6s2.687,6,6,6h47.706v28.333h-37.706
	c-3.313,0-6,2.687-6,6s2.687,6,6,6h37.706v28.333h-23.706c-3.313,0-6,2.687-6,6s2.687,6,6,6h23.706v28.254h-37.773
	c-3.313,0-6,2.687-6,6s2.687,6,6,6h22.511v25.679h-13.499c-3.313,0-6,2.687-6,6s2.687,6,6,6h19.499c3.313,0,6-2.687,6-6V432.92
	h9.263c3.313,0,6-2.687,6-6V16.951C412.715,7.604,405.11,0,395.764,0z M123.315,458.599c2.449-6.646,8.847-11.399,16.334-11.399
	h42.6v11.399H123.315z M287.929,447.199h42.601c7.486,0,13.884,4.753,16.333,11.399h-58.934V447.199z M137.217,95.59
	c2.964-1.572,6.14-2.37,9.438-2.37c4.228,0,8.272,1.353,11.612,3.716c2.021,1.431,3.096,3.885,2.671,6.325
	c-1.175,6.753-5.833,12.576-12.522,15.096c-6.504,2.452-13.733,1.244-19.069-2.851c-1.861-1.428-2.817-3.804-2.372-6.107
	c0.305-1.574,0.796-3.105,1.471-4.558c0.118-0.197,0.222-0.402,0.317-0.611C130.567,100.668,133.435,97.61,137.217,95.59z
	 M150.949,407.5c-2.734,0-5.342-0.818-7.551-2.24h15.108C156.297,406.682,153.687,407.5,150.949,407.5z M182.249,388
	c0,2.9-2.359,5.26-5.26,5.26h-49.48c-2.9,0-5.26-2.359-5.26-5.26v-12.48c0-2.9,2.359-5.26,5.26-5.26h49.48
	c2.9,0,5.26,2.359,5.26,5.26V388z M194.249,375.76v-0.24c0-9.517-7.743-17.26-17.26-17.26h-0.04v-1.76h18.168
	c0.294,3.95,1.851,7.74,4.5,10.777c3.513,4.026,8.591,6.336,13.935,6.336h2.537v2.146H194.249z M213.552,361.613
	c-1.903,0-3.64-0.79-4.891-2.224s-1.797-3.262-1.538-5.146l2.565-18.71c0.932-6.796,6.807-11.92,13.665-11.92h23.471
	c6.859,0,12.734,5.124,13.666,11.92l2.565,18.709c0.259,1.886-0.288,3.714-1.539,5.147s-2.987,2.224-4.89,2.224H213.552z
	 M228.089,446.898v-73.285h14v73.285H228.089z M254.089,375.76v-2.146h2.538c5.343,0,10.421-2.31,13.933-6.335
	c2.65-3.038,4.207-6.827,4.501-10.778h18.168v1.76h-0.041c-9.517,0-17.26,7.743-17.26,17.26v0.24H254.089z M319.229,407.5
	c-2.738,0-5.348-0.818-7.558-2.24h15.109C324.571,406.682,321.963,407.5,319.229,407.5z M347.929,375.52V388
	c0,2.9-2.359,5.26-5.26,5.26h-49.48c-2.9,0-5.26-2.359-5.26-5.26v-12.48c0-2.9,2.359-5.26,5.26-5.26h49.48
	C345.569,370.26,347.929,372.619,347.929,375.52z M292.102,242.101c-2.663,6.418-4.001,13.184-3.978,20.089V304.5h-8.75
	c-3.313,0-6,2.687-6,6s2.687,6,6,6h39.854c7.72,0,14,6.28,14,14v27.76h-28L305.226,336c0-3.313-2.687-6-6-6s-6,2.687-6,6v8.5
	h-19.395l-1.453-10.598c-1.742-12.707-12.729-22.289-25.555-22.289h-23.471c-12.826,0-23.812,9.582-25.554,22.289l-1.453,10.598
	h-19.397V336c0-3.313-2.687-6-6-6s-6,2.687-6,6v22.26h-28V330.5c0-7.72,6.28-14,14-14h39.855c3.313,0,6-2.687,6-6s-2.687-6-6-6
	h-8.29v-42.42c-0.011-6.875-1.35-13.568-3.979-19.895L131.94,130.143c3.083,0.964,6.307,1.473,9.561,1.473
	c3.738,0,7.515-0.659,11.147-2.03c7.488-2.82,13.388-8.224,16.919-14.915l8.826,18.564c-3.883,8.171-6.064,17.301-6.064,26.932
	c0,34.722,28.248,62.97,62.969,62.97c34.722,0,62.97-28.248,62.97-62.97c0-9.634-2.182-18.766-6.066-26.938l8.796-18.493
	c3.534,6.661,9.419,12.039,16.88,14.848c3.636,1.372,7.411,2.032,11.152,2.032c3.282,0,6.533-0.519,9.641-1.5L292.102,242.101z
	 M286.268,160.166c0,28.104-22.865,50.97-50.97,50.97s-50.969-22.865-50.969-50.97s22.864-50.969,50.969-50.969
	S286.268,132.062,286.268,160.166z M333.368,95.583c3.797,2.028,6.674,5.098,8.479,8.671c0.706,1.34,1.448,3.496,1.761,5.076
	c0.456,2.302-0.491,4.683-2.346,6.12c-5.344,4.142-12.613,5.371-19.152,2.904c-6.666-2.51-11.314-8.306-12.505-15.034
	c-0.432-2.437,0.636-4.891,2.65-6.33c3.355-2.397,7.429-3.771,11.689-3.771C327.242,93.22,330.418,94.018,333.368,95.583z
	 M297.1,95.714c-0.797,1.211-12.437,25.428-12.437,25.428c-11.543-14.571-29.374-23.945-49.364-23.945
	c-19.991,0-37.822,9.375-49.365,23.947c0,0-11.637-24.22-12.435-25.432L184.653,93h101.282L297.1,95.714z M83.885,19
	c0,3.859-3.141,7-7,7s-7-3.141-7-7s3.141-7,7-7S83.885,15.141,83.885,19z M242.3,19c0,3.859-3.141,7-7,7s-7-3.141-7-7s3.141-7,7-7
	S242.3,15.141,242.3,19z M393.715,26c-3.859,0-7-3.141-7-7s3.141-7,7-7s7,3.141,7,7S397.574,26,393.715,26z"/>
<g>
</g>
<g>
</g>
<g>
</g>
<g>
</g>
<g>
</g>
<g>
</g>
<g>
</g>
<g>
</g>
<g>
</g>
<g>
</g>
<g>
</g>
<g>
</g>
<g>
</g>
<g>
</g>
<g>
</g>
</svg>
