<?xml version="1.0" encoding="iso-8859-1"?>
<!-- Generator: Adobe Illustrator 18.0.0, SVG Export Plug-In . SVG Version: 6.00 Build 0)  -->
<!DOCTYPE svg PUBLIC "-//W3C//DTD SVG 1.1//EN" "http://www.w3.org/Graphics/SVG/1.1/DTD/svg11.dtd">
<svg version="1.1" id="Capa_1" xmlns="http://www.w3.org/2000/svg" xmlns:xlink="http://www.w3.org/1999/xlink" x="0px" y="0px"
	 viewBox="0 0 351.034 351.034" style="enable-background:new 0 0 351.034 351.034;" xml:space="preserve">
<g>
	<path d="M325.995,23.813C311.628,8.457,292.136,0,271.106,0H79.929C58.9,0,39.407,8.457,25.04,23.813
		C10.674,39.169,3.533,59.181,4.931,80.163l12.506,187.592c3.113,46.698,42.213,83.278,89.015,83.278h138.129
		c46.802,0,85.902-36.58,89.015-83.278l12.506-187.592C347.502,59.182,340.361,39.169,325.995,23.813z M175.515,33.196
		c-12.932,0-23.776-9.079-26.516-21.196h53.037C199.295,24.118,188.449,33.196,175.515,33.196z M169.517,44.737v13.114
		C145.52,55.093,126.429,36.001,123.668,12h13.115C139.377,28.819,152.7,42.143,169.517,44.737z M181.516,44.737
		c16.818-2.595,30.14-15.919,32.735-32.737h13.115c-2.762,23.998-21.852,43.089-45.85,45.851V44.737z M244.582,339.034H106.453
		c-40.506,0-74.347-31.66-77.042-72.076L16.905,79.365c-1.175-17.632,4.826-34.45,16.899-47.354S62.257,12,79.929,12h31.674
		c3.038,32.6,30.535,58.207,63.91,58.207c33.381,0,60.882-25.607,63.92-58.207h31.674c17.672,0,34.053,7.107,46.125,20.012
		c12.073,12.904,18.074,29.721,16.898,47.354l-1.133,17.001c-0.004,0.036-0.004,0.072-0.007,0.108l-11.365,170.483
		C318.93,307.374,285.089,339.034,244.582,339.034z"/>
	<path d="M252.898,75.007H98.136c-19.025,0-36.722,7.341-48.552,20.141c-9.624,10.413-14.345,23.482-13.295,36.801L47.12,269.275
		c2.199,27.871,29.365,49.703,61.847,49.703h133.1c32.481,0,59.648-21.832,61.847-49.703l10.832-137.325
		c1.051-13.319-3.671-26.389-13.295-36.801C289.621,82.349,271.925,75.007,252.898,75.007z M98.136,87.007h154.763
		c15.689,0,30.175,5.936,39.74,16.286c0.891,0.964,1.724,1.957,2.504,2.974H55.892c0.779-1.017,1.613-2.01,2.504-2.974
		C67.962,92.943,82.446,87.007,98.136,87.007z M302.783,131.006l-0.792,10.037H49.043l-0.792-10.037
		c-0.34-4.315,0.148-8.611,1.406-12.739h251.721C302.635,122.396,303.123,126.691,302.783,131.006z M288.866,280.147H62.168
		c-1.69-3.711-2.758-7.676-3.085-11.815l-0.865-10.965h234.597l-0.865,10.965C291.624,272.471,290.556,276.436,288.866,280.147z
		 M57.272,245.367l-1.796-22.77h240.083l-1.796,22.77H57.272z M54.529,210.597l-1.797-22.778h245.569l-1.797,22.778H54.529z
		 M51.786,175.819l-1.797-22.776h251.055l-1.796,22.776H51.786z M108.968,306.978c-15.282,0-29.082-5.755-38.294-14.831h209.688
		c-9.212,9.076-23.012,14.831-38.294,14.831H108.968z"/>
</g>
<g>
</g>
<g>
</g>
<g>
</g>
<g>
</g>
<g>
</g>
<g>
</g>
<g>
</g>
<g>
</g>
<g>
</g>
<g>
</g>
<g>
</g>
<g>
</g>
<g>
</g>
<g>
</g>
<g>
</g>
</svg>
