<?xml version="1.0" encoding="iso-8859-1"?>
<!-- Generator: Adobe Illustrator 18.0.0, SVG Export Plug-In . SVG Version: 6.00 Build 0)  -->
<!DOCTYPE svg PUBLIC "-//W3C//DTD SVG 1.1//EN" "http://www.w3.org/Graphics/SVG/1.1/DTD/svg11.dtd">
<svg version="1.1" id="Capa_1" xmlns="http://www.w3.org/2000/svg" xmlns:xlink="http://www.w3.org/1999/xlink" x="0px" y="0px"
	 viewBox="0 0 447.57 447.57" style="enable-background:new 0 0 447.57 447.57;" xml:space="preserve">
<g>
	<path d="M447.569,211.269c0-39.858-23.624-77.143-66.521-104.985c-42.095-27.322-97.945-42.369-157.264-42.369
		S108.616,78.961,66.521,106.283C23.625,134.125,0.001,171.41,0.001,211.269c0,4.203-0.001,20.845-0.001,25.038
		c0,39.859,23.625,77.144,66.523,104.984c42.096,27.32,97.947,42.366,157.267,42.366c59.314,0,115.163-15.046,157.258-42.366
		c42.897-27.841,66.522-65.125,66.522-104.984C447.57,232.113,447.569,215.473,447.569,211.269z M223.785,75.914
		c116.778,0,211.784,60.72,211.784,135.354s-95.006,135.355-211.784,135.355S12.001,285.903,12.001,211.269
		S107.007,75.914,223.785,75.914z M223.79,371.656c-97.783,0-180.287-42.573-204.547-100.236
		c11.196,16.557,27.105,31.74,47.279,44.834c42.095,27.322,97.945,42.369,157.264,42.369s115.169-15.047,157.264-42.369
		c20.175-13.095,36.083-28.279,47.28-44.836C404.07,329.082,321.57,371.656,223.79,371.656z"/>
	<path d="M104.188,291.808c32.034,20.792,74.508,32.243,119.598,32.243s87.563-11.451,119.598-32.243
		c32.836-21.313,50.92-49.915,50.92-80.539c0-30.624-18.084-59.226-50.92-80.539c-32.034-20.792-74.508-32.243-119.598-32.243
		s-87.563,11.451-119.598,32.243c-32.836,21.313-50.92,49.915-50.92,80.539C53.268,241.893,71.352,270.495,104.188,291.808z
		 M223.785,110.487c87.407,0,158.518,45.21,158.518,100.781c0,55.571-71.11,100.782-158.518,100.782S65.268,266.84,65.268,211.269
		C65.268,155.698,136.378,110.487,223.785,110.487z"/>
	<path d="M123.635,275.284c26.845,16.291,62.412,25.262,100.15,25.262s73.306-8.972,100.151-25.262
		c27.781-16.859,43.081-39.593,43.081-64.016c0-24.422-15.3-47.157-43.081-64.015c-26.846-16.291-62.413-25.262-100.151-25.262
		s-73.306,8.972-100.15,25.262c-27.782,16.859-43.082,39.593-43.082,64.015C80.553,235.691,95.853,258.425,123.635,275.284z
		 M129.86,157.512c24.994-15.168,58.351-23.521,93.925-23.521s68.931,8.353,93.926,23.521c24.058,14.599,37.307,33.69,37.307,53.756
		s-13.249,39.158-37.307,53.757c-24.995,15.168-58.352,23.521-93.926,23.521s-68.931-8.353-93.925-23.521
		c-24.059-14.599-37.308-33.69-37.308-53.757S105.802,172.111,129.86,157.512z"/>
	<path d="M223.785,265.213c52.275,0,93.225-23.695,93.225-53.945c0-30.249-40.949-53.944-93.225-53.944
		s-93.225,23.695-93.225,53.944C130.561,241.518,171.51,265.213,223.785,265.213z M223.785,169.324
		c44.028,0,81.225,19.208,81.225,41.944s-37.196,41.945-81.225,41.945s-81.225-19.208-81.225-41.945
		S179.757,169.324,223.785,169.324z"/>
	<path d="M223.785,227.028c11.797,0,21.037-6.922,21.037-15.76c0-8.837-9.24-15.759-21.037-15.759
		c-11.796,0-21.036,6.922-21.036,15.759C202.749,220.106,211.989,227.028,223.785,227.028z M223.785,207.509
		c5.93,0,9.037,2.793,9.037,3.759s-3.107,3.76-9.037,3.76s-9.036-2.793-9.036-3.76S217.855,207.509,223.785,207.509z"/>
</g>
<g>
</g>
<g>
</g>
<g>
</g>
<g>
</g>
<g>
</g>
<g>
</g>
<g>
</g>
<g>
</g>
<g>
</g>
<g>
</g>
<g>
</g>
<g>
</g>
<g>
</g>
<g>
</g>
<g>
</g>
</svg>
